<svg xmlns="http://www.w3.org/2000/svg" xmlns:xlink="http://www.w3.org/1999/xlink" width="500" zoomAndPan="magnify" viewBox="0 0 375 374.999991" height="500" preserveAspectRatio="xMidYMid meet" version="1.0"><defs><clipPath id="500e310189"><path d="M 41 105 L 159 105 L 159 291 L 41 291 Z M 41 105 " clip-rule="nonzero"/></clipPath><clipPath id="831a159a99"><path d="M 115.105469 310.074219 L 2.625 197.59375 L 126.824219 73.394531 L 239.304688 185.875 Z M 115.105469 310.074219 " clip-rule="nonzero"/></clipPath><clipPath id="6b9d1ea5c5"><path d="M 115.105469 310.074219 L 2.625 197.59375 L 126.824219 73.394531 L 239.304688 185.875 Z M 115.105469 310.074219 " clip-rule="nonzero"/></clipPath><clipPath id="2f3c634c0e"><path d="M 91.777344 155.402344 C 90.730469 156.445312 89.726562 157.527344 88.761719 158.644531 C 87.796875 159.765625 86.875 160.914062 85.996094 162.101562 C 85.117188 163.289062 84.28125 164.503906 83.492188 165.753906 C 82.699219 167 81.957031 168.273438 81.261719 169.578125 C 80.566406 170.878906 79.917969 172.207031 79.320312 173.554688 C 78.722656 174.90625 78.171875 176.277344 77.675781 177.667969 C 77.179688 179.054688 76.730469 180.464844 76.339844 181.886719 C 75.945312 183.308594 75.601562 184.746094 75.316406 186.195312 C 75.027344 187.640625 74.792969 189.097656 74.613281 190.566406 C 74.429688 192.03125 74.304688 193.5 74.230469 194.976562 C 74.160156 196.449219 74.140625 197.925781 74.175781 199.402344 C 74.214844 200.878906 74.304688 202.351562 74.449219 203.820312 C 74.59375 205.289062 74.792969 206.753906 75.042969 208.207031 C 75.296875 209.664062 75.601562 211.105469 75.960938 212.539062 C 76.320312 213.972656 76.730469 215.390625 77.195312 216.789062 C 77.65625 218.191406 78.171875 219.578125 78.738281 220.941406 C 79.300781 222.304688 79.917969 223.648438 80.582031 224.964844 C 81.246094 226.285156 81.957031 227.578125 82.714844 228.84375 C 83.476562 230.109375 84.28125 231.347656 85.128906 232.554688 C 85.980469 233.761719 86.875 234.9375 87.8125 236.078125 C 88.746094 237.21875 89.726562 238.324219 90.742188 239.394531 C 91.761719 240.464844 92.816406 241.496094 93.914062 242.484375 C 95.007812 243.476562 96.136719 244.425781 97.300781 245.335938 C 98.464844 246.246094 99.660156 247.109375 100.886719 247.929688 C 102.117188 248.75 103.371094 249.523438 104.65625 250.25 C 105.941406 250.980469 107.253906 251.660156 108.585938 252.289062 C 109.921875 252.921875 111.277344 253.503906 112.65625 254.035156 C 114.035156 254.566406 115.429688 255.042969 116.84375 255.472656 C 118.257812 255.902344 119.683594 256.277344 121.125 256.601562 C 122.566406 256.925781 124.015625 257.195312 125.476562 257.410156 C 126.9375 257.628906 128.402344 257.789062 129.875 257.898438 C 131.347656 258.007812 132.824219 258.0625 134.300781 258.0625 L 134.296875 253.703125 C 132.46875 253.703125 130.648438 253.613281 128.828125 253.433594 C 127.011719 253.253906 125.207031 252.984375 123.414062 252.628906 C 121.621094 252.273438 119.851562 251.828125 118.101562 251.296875 C 116.355469 250.765625 114.636719 250.152344 112.949219 249.453125 C 111.261719 248.753906 109.613281 247.972656 108 247.113281 C 106.390625 246.25 104.824219 245.3125 103.304688 244.296875 C 101.785156 243.28125 100.320312 242.191406 98.910156 241.035156 C 97.496094 239.875 96.144531 238.648438 94.851562 237.355469 C 93.5625 236.066406 92.335938 234.710938 91.175781 233.300781 C 90.019531 231.886719 88.929688 230.421875 87.917969 228.902344 C 86.902344 227.382812 85.964844 225.816406 85.101562 224.207031 C 84.242188 222.59375 83.460938 220.945312 82.761719 219.257812 C 82.0625 217.566406 81.449219 215.851562 80.917969 214.101562 C 80.390625 212.351562 79.945312 210.582031 79.589844 208.789062 C 79.234375 207 78.96875 205.191406 78.789062 203.375 C 78.609375 201.558594 78.519531 199.734375 78.519531 197.90625 C 78.519531 196.078125 78.609375 194.257812 78.789062 192.4375 C 78.96875 190.621094 79.238281 188.816406 79.59375 187.023438 C 79.953125 185.230469 80.394531 183.460938 80.925781 181.714844 C 81.457031 179.964844 82.070312 178.246094 82.769531 176.558594 C 83.46875 174.871094 84.25 173.222656 85.113281 171.609375 C 85.972656 170 86.914062 168.433594 87.929688 166.914062 C 88.945312 165.398438 90.03125 163.929688 91.191406 162.519531 C 92.347656 161.105469 93.574219 159.753906 94.867188 158.464844 C 96.160156 157.171875 97.511719 155.945312 98.925781 154.789062 C 100.335938 153.628906 101.804688 152.542969 103.320312 151.527344 C 104.839844 150.511719 106.40625 149.574219 108.019531 148.714844 C 109.628906 147.851562 111.28125 147.074219 112.96875 146.375 C 114.65625 145.675781 116.375 145.058594 118.121094 144.53125 C 119.871094 144 121.640625 143.558594 123.433594 143.199219 C 125.226562 142.84375 127.03125 142.578125 128.847656 142.398438 C 130.667969 142.21875 132.488281 142.128906 134.316406 142.132812 L 158.933594 142.132812 L 158.929688 137.773438 L 134.3125 137.804688 C 130.363281 137.792969 126.449219 138.167969 122.570312 138.933594 C 118.695312 139.695312 114.933594 140.832031 111.28125 142.34375 C 107.628906 143.851562 104.164062 145.707031 100.882812 147.90625 C 97.597656 150.101562 94.5625 152.601562 91.777344 155.402344 Z M 107.207031 170.835938 C 105.875 172.167969 104.648438 173.589844 103.527344 175.101562 C 102.402344 176.617188 101.398438 178.203125 100.511719 179.867188 C 99.621094 181.527344 98.863281 183.246094 98.226562 185.019531 C 97.59375 186.792969 97.089844 188.601562 96.722656 190.453125 C 96.355469 192.300781 96.125 194.164062 96.035156 196.046875 C 95.941406 197.925781 95.988281 199.804688 96.171875 201.679688 C 96.355469 203.554688 96.675781 205.40625 97.136719 207.234375 C 97.59375 209.0625 98.183594 210.847656 98.902344 212.585938 C 99.625 214.328125 100.46875 216.007812 101.4375 217.621094 C 102.40625 219.238281 103.488281 220.773438 104.683594 222.230469 C 105.878906 223.6875 107.171875 225.046875 108.570312 226.3125 C 109.964844 227.578125 111.445312 228.734375 113.011719 229.78125 C 114.578125 230.828125 116.214844 231.753906 117.917969 232.5625 C 119.621094 233.367188 121.371094 234.042969 123.175781 234.589844 C 124.976562 235.136719 126.8125 235.550781 128.675781 235.824219 C 130.539062 236.101562 132.414062 236.242188 134.296875 236.242188 L 134.296875 231.878906 C 133.183594 231.878906 132.074219 231.824219 130.96875 231.71875 C 129.859375 231.609375 128.761719 231.445312 127.671875 231.230469 C 126.578125 231.011719 125.503906 230.742188 124.4375 230.417969 C 123.375 230.097656 122.328125 229.722656 121.300781 229.296875 C 120.273438 228.871094 119.265625 228.398438 118.285156 227.875 C 117.304688 227.347656 116.351562 226.777344 115.425781 226.160156 C 114.503906 225.542969 113.609375 224.878906 112.75 224.175781 C 111.890625 223.46875 111.066406 222.722656 110.28125 221.9375 C 109.492188 221.152344 108.746094 220.328125 108.042969 219.46875 C 107.335938 218.609375 106.675781 217.714844 106.054688 216.792969 C 105.4375 215.867188 104.867188 214.914062 104.34375 213.933594 C 103.820312 212.953125 103.34375 211.949219 102.917969 210.917969 C 102.492188 209.890625 102.117188 208.847656 101.792969 207.78125 C 101.472656 206.71875 101.203125 205.640625 100.984375 204.550781 C 100.769531 203.457031 100.605469 202.359375 100.496094 201.253906 C 100.386719 200.144531 100.332031 199.035156 100.332031 197.921875 C 100.332031 196.8125 100.386719 195.703125 100.496094 194.59375 C 100.605469 193.488281 100.769531 192.386719 100.984375 191.296875 C 101.203125 190.207031 101.472656 189.128906 101.796875 188.066406 C 102.117188 187 102.492188 185.953125 102.917969 184.925781 C 103.34375 183.898438 103.820312 182.894531 104.34375 181.914062 C 104.871094 180.933594 105.441406 179.980469 106.058594 179.054688 C 106.675781 178.132812 107.339844 177.238281 108.042969 176.378906 C 108.75 175.519531 109.496094 174.695312 110.285156 173.910156 C 111.070312 173.125 111.894531 172.378906 112.753906 171.671875 C 113.613281 170.96875 114.507812 170.304688 115.429688 169.6875 C 116.355469 169.070312 117.308594 168.5 118.289062 167.976562 C 119.269531 167.453125 120.277344 166.976562 121.304688 166.550781 C 122.332031 166.125 123.378906 165.753906 124.441406 165.429688 C 125.507812 165.105469 126.582031 164.835938 127.675781 164.621094 C 128.765625 164.40625 129.863281 164.242188 130.972656 164.132812 C 132.078125 164.023438 133.1875 163.96875 134.300781 163.972656 L 158.949219 163.972656 L 158.945312 159.613281 L 134.296875 159.613281 C 131.78125 159.605469 129.289062 159.847656 126.820312 160.335938 C 124.351562 160.824219 121.953125 161.546875 119.628906 162.511719 C 117.304688 163.472656 115.097656 164.65625 113.003906 166.058594 C 110.914062 167.457031 108.984375 169.050781 107.207031 170.835938 Z M 99.476562 163.105469 C 97.769531 164.816406 96.191406 166.644531 94.75 168.585938 C 93.3125 170.53125 92.019531 172.570312 90.882812 174.703125 C 89.742188 176.839844 88.765625 179.042969 87.949219 181.324219 C 87.132812 183.601562 86.492188 185.925781 86.019531 188.300781 C 85.546875 190.671875 85.253906 193.066406 85.132812 195.484375 C 85.015625 197.902344 85.074219 200.3125 85.3125 202.722656 C 85.550781 205.128906 85.960938 207.507812 86.550781 209.851562 C 87.136719 212.199219 87.894531 214.492188 88.820312 216.726562 C 89.746094 218.960938 90.828125 221.117188 92.074219 223.195312 C 93.316406 225.269531 94.707031 227.242188 96.238281 229.113281 C 97.773438 230.984375 99.4375 232.730469 101.230469 234.355469 C 103.019531 235.984375 104.921875 237.46875 106.933594 238.8125 C 108.945312 240.15625 111.042969 241.347656 113.230469 242.382812 C 115.417969 243.417969 117.667969 244.289062 119.984375 244.992188 C 122.296875 245.695312 124.652344 246.226562 127.046875 246.582031 C 129.4375 246.941406 131.84375 247.117188 134.265625 247.121094 L 134.296875 242.792969 C 132.851562 242.753906 131.410156 242.648438 129.972656 242.476562 C 128.539062 242.300781 127.113281 242.054688 125.699219 241.742188 C 124.289062 241.429688 122.894531 241.050781 121.519531 240.601562 C 120.140625 240.152344 118.792969 239.640625 117.464844 239.0625 C 116.140625 238.484375 114.84375 237.84375 113.582031 237.140625 C 112.316406 236.4375 111.089844 235.671875 109.898438 234.851562 C 108.707031 234.027344 107.558594 233.152344 106.453125 232.21875 C 105.347656 231.285156 104.292969 230.300781 103.28125 229.265625 C 102.269531 228.230469 101.3125 227.148438 100.40625 226.019531 C 99.503906 224.890625 98.652344 223.722656 97.859375 222.511719 C 97.066406 221.300781 96.335938 220.054688 95.664062 218.773438 C 94.992188 217.492188 94.382812 216.183594 93.835938 214.84375 C 93.292969 213.5 92.8125 212.136719 92.398438 210.753906 C 91.984375 209.367188 91.640625 207.960938 91.363281 206.542969 C 91.085938 205.125 90.875 203.691406 90.738281 202.253906 C 90.597656 200.8125 90.527344 199.371094 90.527344 197.921875 C 90.527344 196.476562 90.597656 195.035156 90.738281 193.59375 C 90.875 192.152344 91.085938 190.722656 91.363281 189.304688 C 91.640625 187.882812 91.988281 186.480469 92.402344 185.09375 C 92.8125 183.707031 93.292969 182.34375 93.839844 181.003906 C 94.382812 179.664062 94.992188 178.355469 95.664062 177.074219 C 96.335938 175.792969 97.070312 174.546875 97.863281 173.335938 C 98.65625 172.125 99.503906 170.957031 100.410156 169.828125 C 101.316406 168.699219 102.273438 167.617188 103.285156 166.582031 C 104.292969 165.546875 105.351562 164.5625 106.457031 163.628906 C 107.5625 162.695312 108.710938 161.820312 109.902344 160.996094 C 111.09375 160.175781 112.320312 159.414062 113.582031 158.707031 C 114.847656 158.003906 116.144531 157.363281 117.46875 156.785156 C 118.796875 156.207031 120.144531 155.695312 121.523438 155.246094 C 122.898438 154.800781 124.292969 154.417969 125.703125 154.105469 C 127.117188 153.792969 128.542969 153.550781 129.976562 153.375 C 131.414062 153.199219 132.855469 153.09375 134.300781 153.058594 L 158.933594 153.058594 L 158.929688 148.703125 L 134.296875 148.703125 C 131.0625 148.691406 127.859375 149.003906 124.691406 149.628906 C 121.519531 150.257812 118.4375 151.1875 115.453125 152.425781 C 112.464844 153.664062 109.628906 155.183594 106.941406 156.980469 C 104.257812 158.78125 101.773438 160.828125 99.496094 163.121094 Z M 76.328125 139.953125 C 75.378906 140.902344 74.457031 141.875 73.554688 142.867188 C 72.65625 143.863281 71.777344 144.878906 70.929688 145.914062 C 70.078125 146.953125 69.253906 148.011719 68.453125 149.089844 C 67.65625 150.164062 66.882812 151.261719 66.140625 152.378906 C 65.394531 153.492188 64.675781 154.625 63.988281 155.777344 C 63.296875 156.929688 62.636719 158.09375 62.007812 159.277344 C 61.375 160.460938 60.773438 161.660156 60.199219 162.871094 C 59.625 164.085938 59.082031 165.3125 58.570312 166.550781 C 58.054688 167.789062 57.574219 169.042969 57.121094 170.304688 C 56.671875 171.566406 56.25 172.839844 55.863281 174.125 C 55.472656 175.40625 55.117188 176.699219 54.789062 178 C 54.464844 179.304688 54.171875 180.613281 53.910156 181.925781 C 53.648438 183.242188 53.421875 184.5625 53.222656 185.890625 C 53.027344 187.21875 52.863281 188.550781 52.730469 189.882812 C 52.601562 191.21875 52.503906 192.554688 52.4375 193.894531 C 52.371094 195.234375 52.339844 196.578125 52.339844 197.917969 C 52.339844 199.257812 52.375 200.601562 52.441406 201.9375 C 52.507812 203.277344 52.605469 204.617188 52.738281 205.953125 C 52.867188 207.285156 53.03125 208.617188 53.230469 209.945312 C 53.425781 211.269531 53.65625 212.589844 53.917969 213.90625 C 54.179688 215.222656 54.476562 216.53125 54.800781 217.832031 C 55.128906 219.132812 55.484375 220.425781 55.875 221.710938 C 56.265625 222.992188 56.6875 224.265625 57.136719 225.527344 C 57.589844 226.792969 58.074219 228.042969 58.585938 229.28125 C 59.101562 230.519531 59.644531 231.746094 60.21875 232.957031 C 60.792969 234.171875 61.394531 235.367188 62.027344 236.550781 C 62.660156 237.734375 63.320312 238.902344 64.011719 240.050781 C 64.703125 241.203125 65.417969 242.335938 66.164062 243.449219 C 66.910156 244.566406 67.683594 245.660156 68.480469 246.738281 C 69.28125 247.816406 70.105469 248.871094 70.957031 249.910156 C 71.808594 250.945312 72.683594 251.960938 73.585938 252.953125 C 74.488281 253.949219 75.410156 254.917969 76.359375 255.867188 C 78.253906 257.773438 80.234375 259.578125 82.308594 261.285156 C 84.378906 262.996094 86.527344 264.597656 88.757812 266.089844 C 90.988281 267.585938 93.289062 268.96875 95.652344 270.238281 C 98.019531 271.503906 100.445312 272.652344 102.925781 273.679688 C 105.40625 274.707031 107.929688 275.613281 110.5 276.390625 C 113.070312 277.167969 115.671875 277.816406 118.304688 278.339844 C 120.9375 278.859375 123.59375 279.25 126.265625 279.507812 C 128.9375 279.765625 131.617188 279.890625 134.300781 279.882812 L 134.28125 275.542969 C 133.011719 275.542969 131.742188 275.511719 130.472656 275.449219 C 129.203125 275.386719 127.9375 275.292969 126.675781 275.167969 C 125.410156 275.046875 124.152344 274.890625 122.894531 274.703125 C 121.636719 274.515625 120.386719 274.300781 119.140625 274.050781 C 117.894531 273.804688 116.65625 273.527344 115.425781 273.21875 C 114.195312 272.910156 112.96875 272.570312 111.753906 272.203125 C 110.539062 271.832031 109.332031 271.433594 108.136719 271.007812 C 106.941406 270.578125 105.757812 270.121094 104.585938 269.636719 C 103.410156 269.148438 102.25 268.636719 101.101562 268.09375 C 99.953125 267.550781 98.820312 266.980469 97.699219 266.378906 C 96.582031 265.78125 95.476562 265.15625 94.386719 264.503906 C 93.296875 263.851562 92.226562 263.171875 91.167969 262.464844 C 90.113281 261.757812 89.074219 261.027344 88.054688 260.273438 C 87.035156 259.515625 86.035156 258.734375 85.050781 257.929688 C 84.070312 257.121094 83.109375 256.292969 82.167969 255.441406 C 81.226562 254.585938 80.308594 253.710938 79.410156 252.8125 C 78.511719 251.917969 77.636719 250.996094 76.785156 250.054688 C 75.929688 249.113281 75.101562 248.152344 74.296875 247.171875 C 73.488281 246.191406 72.707031 245.1875 71.953125 244.167969 C 71.195312 243.148438 70.464844 242.109375 69.757812 241.054688 C 69.054688 240 68.375 238.925781 67.722656 237.835938 C 67.070312 236.75 66.441406 235.644531 65.84375 234.523438 C 65.246094 233.402344 64.675781 232.269531 64.132812 231.121094 C 63.589844 229.972656 63.074219 228.8125 62.589844 227.640625 C 62.101562 226.464844 61.644531 225.28125 61.21875 224.085938 C 60.789062 222.890625 60.390625 221.683594 60.023438 220.46875 C 59.652344 219.253906 59.316406 218.03125 59.007812 216.796875 C 58.699219 215.566406 58.417969 214.328125 58.171875 213.082031 C 57.925781 211.835938 57.707031 210.585938 57.519531 209.328125 C 57.335938 208.074219 57.179688 206.8125 57.054688 205.550781 C 56.929688 204.285156 56.835938 203.019531 56.773438 201.75 C 56.710938 200.484375 56.679688 199.214844 56.679688 197.945312 C 56.679688 196.671875 56.710938 195.402344 56.773438 194.136719 C 56.835938 192.867188 56.929688 191.601562 57.054688 190.335938 C 57.179688 189.074219 57.335938 187.8125 57.519531 186.558594 C 57.707031 185.300781 57.925781 184.050781 58.171875 182.804688 C 58.421875 181.558594 58.699219 180.320312 59.007812 179.085938 C 59.316406 177.855469 59.65625 176.632812 60.023438 175.417969 C 60.390625 174.203125 60.789062 172.996094 61.21875 171.800781 C 61.644531 170.605469 62.101562 169.417969 62.589844 168.246094 C 63.074219 167.074219 63.589844 165.914062 64.132812 164.765625 C 64.675781 163.617188 65.246094 162.480469 65.84375 161.363281 C 66.445312 160.242188 67.070312 159.136719 67.722656 158.046875 C 68.375 156.957031 69.054688 155.886719 69.761719 154.828125 C 70.464844 153.773438 71.195312 152.734375 71.953125 151.714844 C 72.710938 150.695312 73.492188 149.695312 74.296875 148.714844 C 75.101562 147.730469 75.933594 146.769531 76.785156 145.828125 C 77.636719 144.886719 78.511719 143.96875 79.410156 143.070312 C 80.308594 142.171875 81.230469 141.296875 82.171875 140.445312 C 83.109375 139.589844 84.074219 138.761719 85.054688 137.957031 C 86.035156 137.148438 87.035156 136.371094 88.058594 135.613281 C 89.078125 134.855469 90.113281 134.125 91.171875 133.417969 C 92.226562 132.714844 93.300781 132.035156 94.390625 131.382812 C 95.476562 130.730469 96.582031 130.101562 97.703125 129.503906 C 98.824219 128.90625 99.957031 128.335938 101.105469 127.792969 C 102.253906 127.25 103.414062 126.734375 104.585938 126.246094 C 105.761719 125.761719 106.945312 125.304688 108.140625 124.878906 C 109.335938 124.449219 110.542969 124.050781 111.757812 123.683594 C 112.972656 123.3125 114.195312 122.976562 115.429688 122.667969 C 116.660156 122.359375 117.898438 122.078125 119.144531 121.832031 C 120.390625 121.582031 121.640625 121.367188 122.898438 121.179688 C 124.152344 120.992188 125.414062 120.839844 126.679688 120.714844 C 127.941406 120.589844 129.207031 120.496094 130.476562 120.433594 C 131.746094 120.371094 133.015625 120.339844 134.285156 120.339844 L 158.890625 120.324219 L 158.886719 115.964844 L 134.296875 115.964844 C 131.613281 115.957031 128.933594 116.082031 126.257812 116.339844 C 123.585938 116.597656 120.933594 116.988281 118.300781 117.507812 C 115.664062 118.027344 113.0625 118.679688 110.492188 119.457031 C 107.921875 120.234375 105.398438 121.136719 102.914062 122.164062 C 100.433594 123.191406 98.011719 124.339844 95.644531 125.605469 C 93.277344 126.875 90.976562 128.253906 88.746094 129.75 C 86.515625 131.242188 84.363281 132.84375 82.292969 134.554688 C 80.21875 136.261719 78.238281 138.066406 76.34375 139.96875 Z M 114.90625 178.53125 C 113.953125 179.484375 113.074219 180.503906 112.273438 181.585938 C 111.472656 182.667969 110.753906 183.804688 110.117188 184.992188 C 109.480469 186.179688 108.9375 187.410156 108.484375 188.675781 C 108.03125 189.945312 107.671875 191.242188 107.410156 192.5625 C 107.144531 193.882812 106.980469 195.21875 106.914062 196.5625 C 106.851562 197.910156 106.882812 199.253906 107.015625 200.59375 C 107.148438 201.933594 107.375 203.257812 107.703125 204.566406 C 108.03125 205.871094 108.453125 207.148438 108.96875 208.394531 C 109.484375 209.640625 110.089844 210.839844 110.78125 211.996094 C 111.472656 213.152344 112.246094 214.25 113.101562 215.289062 C 113.957031 216.332031 114.882812 217.304688 115.882812 218.210938 C 116.878906 219.117188 117.9375 219.941406 119.058594 220.691406 C 120.179688 221.441406 121.347656 222.101562 122.566406 222.679688 C 123.785156 223.253906 125.039062 223.738281 126.328125 224.132812 C 127.617188 224.523438 128.925781 224.816406 130.261719 225.015625 C 131.59375 225.214844 132.933594 225.3125 134.28125 225.3125 L 134.285156 220.957031 C 133.53125 220.957031 132.777344 220.917969 132.027344 220.84375 C 131.273438 220.769531 130.527344 220.660156 129.789062 220.511719 C 129.046875 220.367188 128.316406 220.183594 127.59375 219.964844 C 126.871094 219.742188 126.164062 219.488281 125.464844 219.203125 C 124.769531 218.914062 124.085938 218.589844 123.421875 218.234375 C 122.757812 217.878906 122.109375 217.492188 121.480469 217.070312 C 120.855469 216.652344 120.25 216.203125 119.664062 215.722656 C 119.082031 215.246094 118.523438 214.738281 117.988281 214.207031 C 117.457031 213.671875 116.949219 213.113281 116.472656 212.53125 C 115.992188 211.945312 115.542969 211.339844 115.125 210.714844 C 114.703125 210.085938 114.316406 209.441406 113.960938 208.773438 C 113.605469 208.109375 113.28125 207.425781 112.996094 206.730469 C 112.707031 206.03125 112.453125 205.324219 112.234375 204.601562 C 112.011719 203.878906 111.832031 203.148438 111.683594 202.40625 C 111.535156 201.667969 111.425781 200.921875 111.351562 200.167969 C 111.277344 199.417969 111.238281 198.664062 111.238281 197.910156 C 111.238281 197.15625 111.277344 196.402344 111.351562 195.652344 C 111.425781 194.902344 111.535156 194.15625 111.683594 193.414062 C 111.832031 192.675781 112.011719 191.945312 112.234375 191.222656 C 112.453125 190.5 112.707031 189.789062 112.996094 189.09375 C 113.28125 188.394531 113.605469 187.714844 113.960938 187.046875 C 114.316406 186.382812 114.703125 185.734375 115.125 185.109375 C 115.542969 184.480469 115.992188 183.875 116.472656 183.292969 C 116.949219 182.707031 117.457031 182.148438 117.988281 181.617188 C 118.523438 181.082031 119.082031 180.578125 119.664062 180.097656 C 120.25 179.617188 120.855469 179.167969 121.480469 178.75 C 122.109375 178.332031 122.757812 177.945312 123.421875 177.585938 C 124.085938 177.230469 124.769531 176.910156 125.464844 176.621094 C 126.164062 176.332031 126.871094 176.078125 127.59375 175.859375 C 128.316406 175.640625 129.046875 175.457031 129.789062 175.308594 C 130.527344 175.164062 131.273438 175.050781 132.027344 174.976562 C 132.777344 174.902344 133.53125 174.867188 134.285156 174.867188 L 158.949219 174.898438 L 158.9375 170.542969 L 134.28125 170.542969 C 132.484375 170.535156 130.703125 170.707031 128.9375 171.054688 C 127.175781 171.402344 125.460938 171.921875 123.800781 172.609375 C 122.140625 173.296875 120.5625 174.140625 119.066406 175.140625 C 117.574219 176.136719 116.191406 177.273438 114.921875 178.546875 Z M 84.046875 147.671875 C 82.8125 148.90625 81.625 150.183594 80.484375 151.503906 C 79.34375 152.824219 78.253906 154.1875 77.214844 155.589844 C 76.171875 156.988281 75.1875 158.425781 74.253906 159.902344 C 73.316406 161.375 72.441406 162.882812 71.617188 164.421875 C 70.792969 165.960938 70.027344 167.527344 69.320312 169.121094 C 68.613281 170.71875 67.964844 172.335938 67.375 173.980469 C 66.789062 175.621094 66.261719 177.285156 65.796875 178.964844 C 65.332031 180.648438 64.925781 182.34375 64.585938 184.058594 C 64.246094 185.769531 63.96875 187.488281 63.753906 189.222656 C 63.539062 190.953125 63.390625 192.691406 63.304688 194.433594 C 63.21875 196.175781 63.199219 197.921875 63.238281 199.667969 C 63.28125 201.410156 63.390625 203.152344 63.558594 204.886719 C 63.730469 206.625 63.964844 208.351562 64.265625 210.074219 C 64.5625 211.792969 64.921875 213.5 65.347656 215.191406 C 65.773438 216.882812 66.257812 218.558594 66.804688 220.214844 C 67.351562 221.871094 67.960938 223.507812 68.628906 225.121094 C 69.296875 226.730469 70.023438 228.316406 70.808594 229.875 C 71.589844 231.433594 72.433594 232.960938 73.328125 234.460938 C 74.226562 235.957031 75.179688 237.417969 76.183594 238.84375 C 77.1875 240.273438 78.246094 241.660156 79.351562 243.007812 C 80.460938 244.355469 81.613281 245.664062 82.816406 246.925781 C 84.023438 248.191406 85.269531 249.410156 86.5625 250.582031 C 87.855469 251.753906 89.191406 252.875 90.566406 253.949219 C 91.941406 255.019531 93.355469 256.042969 94.808594 257.011719 C 96.257812 257.980469 97.746094 258.894531 99.261719 259.753906 C 100.78125 260.613281 102.328125 261.417969 103.90625 262.164062 C 105.484375 262.910156 107.089844 263.597656 108.71875 264.222656 C 110.34375 264.851562 111.996094 265.417969 113.664062 265.925781 C 115.335938 266.429688 117.019531 266.875 118.722656 267.253906 C 120.425781 267.636719 122.140625 267.957031 123.867188 268.210938 C 125.59375 268.46875 127.328125 268.660156 129.066406 268.785156 C 130.808594 268.914062 132.550781 268.976562 134.296875 268.976562 L 134.296875 264.613281 C 133.210938 264.605469 132.128906 264.570312 131.042969 264.507812 C 129.960938 264.445312 128.878906 264.355469 127.800781 264.238281 C 126.71875 264.125 125.644531 263.984375 124.574219 263.816406 C 123.5 263.648438 122.433594 263.453125 121.371094 263.234375 C 120.308594 263.011719 119.25 262.765625 118.199219 262.496094 C 117.148438 262.222656 116.105469 261.925781 115.070312 261.605469 C 114.035156 261.28125 113.003906 260.933594 111.988281 260.5625 C 110.96875 260.1875 109.957031 259.789062 108.957031 259.367188 C 107.957031 258.945312 106.96875 258.5 105.992188 258.03125 C 105.011719 257.558594 104.046875 257.066406 103.09375 256.546875 C 102.140625 256.03125 101.199219 255.488281 100.269531 254.925781 C 99.34375 254.363281 98.429688 253.777344 97.53125 253.167969 C 96.632812 252.5625 95.75 251.933594 94.878906 251.28125 C 94.011719 250.628906 93.160156 249.957031 92.324219 249.265625 C 91.488281 248.574219 90.671875 247.859375 89.871094 247.128906 C 89.070312 246.394531 88.289062 245.644531 87.523438 244.871094 C 86.757812 244.101562 86.015625 243.3125 85.289062 242.503906 C 84.5625 241.699219 83.859375 240.875 83.171875 240.03125 C 82.488281 239.191406 81.824219 238.332031 81.179688 237.457031 C 80.539062 236.585938 79.914062 235.695312 79.316406 234.789062 C 78.714844 233.886719 78.136719 232.96875 77.582031 232.035156 C 77.027344 231.101562 76.496094 230.15625 75.988281 229.199219 C 75.480469 228.238281 74.992188 227.269531 74.53125 226.285156 C 74.070312 225.304688 73.632812 224.3125 73.21875 223.308594 C 72.808594 222.304688 72.417969 221.292969 72.054688 220.269531 C 71.691406 219.246094 71.351562 218.214844 71.039062 217.175781 C 70.726562 216.136719 70.4375 215.089844 70.175781 214.039062 C 69.914062 212.984375 69.679688 211.925781 69.46875 210.863281 C 69.257812 209.796875 69.074219 208.726562 68.914062 207.652344 C 68.757812 206.582031 68.625 205.503906 68.519531 204.421875 C 68.414062 203.34375 68.332031 202.261719 68.28125 201.175781 C 68.226562 200.09375 68.199219 199.007812 68.199219 197.921875 C 68.199219 196.839844 68.226562 195.753906 68.28125 194.667969 C 68.332031 193.585938 68.414062 192.503906 68.519531 191.421875 C 68.625 190.34375 68.757812 189.265625 68.914062 188.191406 C 69.074219 187.117188 69.257812 186.050781 69.46875 184.984375 C 69.679688 183.921875 69.914062 182.863281 70.175781 181.808594 C 70.441406 180.753906 70.726562 179.710938 71.039062 178.671875 C 71.355469 177.632812 71.691406 176.601562 72.054688 175.578125 C 72.421875 174.554688 72.808594 173.542969 73.222656 172.539062 C 73.632812 171.535156 74.070312 170.542969 74.535156 169.558594 C 74.996094 168.578125 75.480469 167.605469 75.988281 166.648438 C 76.5 165.691406 77.03125 164.746094 77.585938 163.8125 C 78.140625 162.878906 78.71875 161.960938 79.316406 161.058594 C 79.917969 160.152344 80.539062 159.261719 81.183594 158.390625 C 81.828125 157.515625 82.492188 156.65625 83.175781 155.816406 C 83.859375 154.972656 84.566406 154.148438 85.292969 153.34375 C 86.015625 152.535156 86.761719 151.746094 87.527344 150.976562 C 88.289062 150.203125 89.074219 149.453125 89.875 148.71875 C 90.675781 147.988281 91.492188 147.277344 92.328125 146.582031 C 93.164062 145.890625 94.015625 145.21875 94.882812 144.566406 C 95.75 143.917969 96.636719 143.285156 97.535156 142.679688 C 98.433594 142.070312 99.347656 141.484375 100.273438 140.921875 C 101.203125 140.359375 102.144531 139.816406 103.097656 139.300781 C 104.050781 138.78125 105.015625 138.289062 105.996094 137.820312 C 106.972656 137.347656 107.960938 136.902344 108.960938 136.480469 C 109.960938 136.058594 110.972656 135.660156 111.992188 135.289062 C 113.007812 134.914062 114.039062 134.566406 115.074219 134.246094 C 116.109375 133.921875 117.152344 133.625 118.203125 133.355469 C 119.253906 133.082031 120.3125 132.835938 121.375 132.617188 C 122.4375 132.398438 123.503906 132.203125 124.578125 132.035156 C 125.648438 131.867188 126.726562 131.726562 127.804688 131.609375 C 128.882812 131.496094 129.964844 131.40625 131.046875 131.34375 C 132.132812 131.28125 133.214844 131.246094 134.300781 131.234375 L 158.902344 131.238281 L 158.894531 126.878906 L 134.296875 126.878906 C 129.628906 126.867188 125.007812 127.3125 120.429688 128.214844 C 115.851562 129.121094 111.40625 130.464844 107.09375 132.25 C 102.785156 134.039062 98.691406 136.230469 94.8125 138.828125 C 90.9375 141.425781 87.351562 144.378906 84.0625 147.6875 Z M 41.425781 197.921875 C 41.425781 199.441406 41.464844 200.960938 41.539062 202.480469 C 41.613281 204 41.726562 205.515625 41.875 207.027344 C 42.023438 208.539062 42.210938 210.046875 42.433594 211.550781 C 42.65625 213.054688 42.914062 214.550781 43.210938 216.042969 C 43.507812 217.53125 43.839844 219.015625 44.210938 220.488281 C 44.578125 221.964844 44.984375 223.429688 45.425781 224.882812 C 45.867188 226.339844 46.34375 227.78125 46.855469 229.210938 C 47.367188 230.644531 47.914062 232.0625 48.496094 233.464844 C 49.078125 234.871094 49.691406 236.257812 50.34375 237.632812 C 50.992188 239.007812 51.675781 240.363281 52.390625 241.703125 C 53.109375 243.046875 53.855469 244.367188 54.640625 245.671875 C 55.421875 246.976562 56.234375 248.257812 57.078125 249.523438 C 57.921875 250.785156 58.796875 252.027344 59.703125 253.25 C 60.609375 254.46875 61.542969 255.667969 62.507812 256.84375 C 63.472656 258.019531 64.464844 259.167969 65.484375 260.292969 C 66.503906 261.421875 67.554688 262.523438 68.628906 263.597656 C 69.703125 264.671875 70.804688 265.71875 71.929688 266.738281 C 73.054688 267.761719 74.207031 268.753906 75.382812 269.71875 C 76.554688 270.679688 77.753906 271.617188 78.976562 272.523438 C 80.195312 273.425781 81.4375 274.300781 82.703125 275.148438 C 83.964844 275.992188 85.25 276.804688 86.554688 277.585938 C 87.855469 278.367188 89.179688 279.117188 90.519531 279.832031 C 91.859375 280.546875 93.21875 281.230469 94.589844 281.882812 C 95.964844 282.53125 97.355469 283.148438 98.757812 283.730469 C 100.164062 284.308594 101.582031 284.855469 103.011719 285.367188 C 104.441406 285.882812 105.886719 286.359375 107.339844 286.800781 C 108.796875 287.238281 110.257812 287.644531 111.734375 288.015625 C 113.207031 288.382812 114.691406 288.714844 116.183594 289.011719 C 117.671875 289.308594 119.167969 289.570312 120.671875 289.792969 C 122.175781 290.015625 123.683594 290.199219 125.199219 290.351562 C 126.710938 290.5 128.226562 290.609375 129.742188 290.683594 C 131.261719 290.757812 132.78125 290.796875 134.300781 290.796875 L 134.296875 286.4375 C 132.847656 286.4375 131.402344 286.402344 129.953125 286.332031 C 128.507812 286.261719 127.0625 286.15625 125.621094 286.011719 C 124.179688 285.871094 122.742188 285.695312 121.308594 285.480469 C 119.875 285.269531 118.449219 285.023438 117.027344 284.738281 C 115.609375 284.457031 114.195312 284.140625 112.789062 283.789062 C 111.382812 283.4375 109.988281 283.050781 108.601562 282.628906 C 107.214844 282.207031 105.839844 281.753906 104.476562 281.265625 C 103.113281 280.777344 101.761719 280.257812 100.421875 279.703125 C 99.085938 279.148438 97.761719 278.5625 96.453125 277.941406 C 95.140625 277.324219 93.847656 276.671875 92.570312 275.988281 C 91.292969 275.308594 90.035156 274.59375 88.792969 273.847656 C 87.546875 273.105469 86.324219 272.328125 85.121094 271.523438 C 83.917969 270.71875 82.730469 269.886719 81.570312 269.023438 C 80.40625 268.160156 79.261719 267.269531 78.144531 266.351562 C 77.023438 265.429688 75.925781 264.484375 74.855469 263.511719 C 73.78125 262.539062 72.730469 261.539062 71.707031 260.515625 C 70.683594 259.492188 69.683594 258.441406 68.710938 257.371094 C 67.738281 256.296875 66.792969 255.199219 65.875 254.082031 C 64.957031 252.960938 64.0625 251.820312 63.203125 250.65625 C 62.339844 249.492188 61.503906 248.308594 60.699219 247.101562 C 59.894531 245.898438 59.121094 244.675781 58.375 243.433594 C 57.632812 242.191406 56.917969 240.929688 56.234375 239.652344 C 55.550781 238.375 54.902344 237.082031 54.28125 235.773438 C 53.660156 234.460938 53.074219 233.136719 52.519531 231.800781 C 51.964844 230.460938 51.445312 229.109375 50.957031 227.746094 C 50.46875 226.382812 50.015625 225.007812 49.59375 223.621094 C 49.175781 222.234375 48.789062 220.839844 48.4375 219.433594 C 48.085938 218.027344 47.765625 216.617188 47.484375 215.195312 C 47.203125 213.773438 46.953125 212.347656 46.742188 210.914062 C 46.53125 209.480469 46.351562 208.042969 46.210938 206.601562 C 46.070312 205.160156 45.960938 203.71875 45.890625 202.269531 C 45.820312 200.824219 45.785156 199.375 45.785156 197.925781 C 45.785156 196.480469 45.820312 195.03125 45.890625 193.582031 C 45.960938 192.136719 46.070312 190.691406 46.210938 189.25 C 46.351562 187.808594 46.53125 186.371094 46.742188 184.9375 C 46.953125 183.507812 47.203125 182.078125 47.484375 180.660156 C 47.769531 179.238281 48.085938 177.824219 48.4375 176.417969 C 48.789062 175.015625 49.175781 173.617188 49.59375 172.230469 C 50.015625 170.84375 50.46875 169.46875 50.957031 168.105469 C 51.445312 166.742188 51.96875 165.390625 52.523438 164.054688 C 53.074219 162.714844 53.664062 161.390625 54.28125 160.082031 C 54.902344 158.769531 55.550781 157.476562 56.234375 156.199219 C 56.917969 154.921875 57.632812 153.664062 58.375 152.421875 C 59.121094 151.175781 59.894531 149.953125 60.699219 148.75 C 61.507812 147.542969 62.339844 146.359375 63.203125 145.199219 C 64.066406 144.035156 64.957031 142.890625 65.875 141.773438 C 66.792969 140.652344 67.742188 139.554688 68.714844 138.480469 C 69.6875 137.410156 70.683594 136.359375 71.710938 135.335938 C 72.734375 134.3125 73.78125 133.3125 74.855469 132.339844 C 75.929688 131.367188 77.027344 130.421875 78.144531 129.503906 C 79.265625 128.582031 80.40625 127.691406 81.570312 126.828125 C 82.734375 125.964844 83.917969 125.132812 85.121094 124.328125 C 86.328125 123.523438 87.550781 122.746094 88.792969 122.003906 C 90.035156 121.257812 91.296875 120.542969 92.574219 119.863281 C 93.851562 119.179688 95.144531 118.527344 96.453125 117.910156 C 97.765625 117.289062 99.089844 116.703125 100.425781 116.148438 C 101.765625 115.59375 103.117188 115.074219 104.480469 114.585938 C 105.84375 114.097656 107.21875 113.640625 108.605469 113.222656 C 109.992188 112.800781 111.386719 112.414062 112.792969 112.0625 C 114.199219 111.710938 115.609375 111.394531 117.03125 111.113281 C 118.453125 110.828125 119.878906 110.582031 121.3125 110.367188 C 122.746094 110.15625 124.183594 109.980469 125.625 109.835938 C 127.066406 109.695312 128.511719 109.589844 129.957031 109.519531 C 131.40625 109.445312 132.851562 109.410156 134.300781 109.410156 L 158.875 109.410156 L 158.871094 105.054688 L 134.296875 105.054688 C 132.777344 105.054688 131.257812 105.089844 129.738281 105.167969 C 128.222656 105.242188 126.707031 105.351562 125.195312 105.5 C 123.679688 105.652344 122.171875 105.835938 120.671875 106.058594 C 119.167969 106.28125 117.667969 106.542969 116.179688 106.839844 C 114.6875 107.136719 113.207031 107.46875 111.730469 107.835938 C 110.257812 108.207031 108.792969 108.613281 107.339844 109.054688 C 105.882812 109.496094 104.441406 109.972656 103.011719 110.484375 C 101.578125 110.996094 100.160156 111.542969 98.757812 112.125 C 97.355469 112.707031 95.964844 113.320312 94.589844 113.972656 C 93.214844 114.621094 91.859375 115.304688 90.519531 116.019531 C 89.179688 116.738281 87.855469 117.484375 86.554688 118.269531 C 85.25 119.050781 83.964844 119.863281 82.703125 120.707031 C 81.4375 121.550781 80.195312 122.425781 78.976562 123.332031 C 77.753906 124.238281 76.558594 125.171875 75.382812 126.136719 C 74.207031 127.097656 73.058594 128.09375 71.929688 129.113281 C 70.804688 130.132812 69.703125 131.179688 68.628906 132.253906 C 67.554688 133.332031 66.507812 134.429688 65.484375 135.558594 C 64.464844 136.683594 63.472656 137.832031 62.507812 139.007812 C 61.542969 140.183594 60.609375 141.382812 59.703125 142.601562 C 58.800781 143.824219 57.925781 145.066406 57.078125 146.328125 C 56.234375 147.59375 55.421875 148.875 54.640625 150.179688 C 53.859375 151.484375 53.109375 152.804688 52.394531 154.144531 C 51.679688 155.484375 50.996094 156.84375 50.34375 158.21875 C 49.695312 159.589844 49.078125 160.980469 48.496094 162.382812 C 47.917969 163.789062 47.371094 165.207031 46.855469 166.636719 C 46.34375 168.066406 45.867188 169.511719 45.425781 170.964844 C 44.984375 172.417969 44.582031 173.882812 44.210938 175.359375 C 43.84375 176.832031 43.507812 178.316406 43.210938 179.804688 C 42.917969 181.296875 42.65625 182.792969 42.433594 184.296875 C 42.210938 185.800781 42.023438 187.308594 41.875 188.820312 C 41.726562 190.332031 41.613281 191.847656 41.539062 193.367188 C 41.464844 194.882812 41.425781 196.402344 41.425781 197.921875 Z M 41.425781 197.921875 " clip-rule="nonzero"/></clipPath><linearGradient x1="-4011.199637" gradientTransform="matrix(0.575383, 0, 0, 0.575383, 2349.893513, -1884.387486)" y1="3456.828716" x2="-3759.279379" gradientUnits="userSpaceOnUse" y2="3736.739185" id="fe11f6faf3"><stop stop-opacity="1" stop-color="rgb(63.139343%, 0%, 92.939758%)" offset="0"/><stop stop-opacity="1" stop-color="rgb(63.139343%, 0%, 92.939758%)" offset="0.25"/><stop stop-opacity="1" stop-color="rgb(63.139343%, 0%, 92.939758%)" offset="0.36283"/><stop stop-opacity="1" stop-color="rgb(63.139343%, 0%, 92.939758%)" offset="0.375"/><stop stop-opacity="1" stop-color="rgb(63.139343%, 0%, 92.939758%)" offset="0.4375"/><stop stop-opacity="1" stop-color="rgb(63.090515%, 0.0671387%, 92.950439%)" offset="0.46875"/><stop stop-opacity="1" stop-color="rgb(62.472534%, 0.930786%, 93.089294%)" offset="0.472656"/><stop stop-opacity="1" stop-color="rgb(61.903381%, 1.727295%, 93.217468%)" offset="0.476562"/><stop stop-opacity="1" stop-color="rgb(61.334229%, 2.523804%, 93.345642%)" offset="0.480469"/><stop stop-opacity="1" stop-color="rgb(60.766602%, 3.320312%, 93.473816%)" offset="0.484375"/><stop stop-opacity="1" stop-color="rgb(60.197449%, 4.116821%, 93.600464%)" offset="0.488281"/><stop stop-opacity="1" stop-color="rgb(59.628296%, 4.91333%, 93.728638%)" offset="0.492187"/><stop stop-opacity="1" stop-color="rgb(59.059143%, 5.709839%, 93.856812%)" offset="0.496094"/><stop stop-opacity="1" stop-color="rgb(58.48999%, 6.506348%, 93.984985%)" offset="0.5"/><stop stop-opacity="1" stop-color="rgb(57.920837%, 7.302856%, 94.113159%)" offset="0.503906"/><stop stop-opacity="1" stop-color="rgb(57.351685%, 8.099365%, 94.241333%)" offset="0.507812"/><stop stop-opacity="1" stop-color="rgb(56.782532%, 8.895874%, 94.369507%)" offset="0.511719"/><stop stop-opacity="1" stop-color="rgb(56.213379%, 9.692383%, 94.497681%)" offset="0.515625"/><stop stop-opacity="1" stop-color="rgb(55.644226%, 10.488892%, 94.625854%)" offset="0.519531"/><stop stop-opacity="1" stop-color="rgb(55.076599%, 11.2854%, 94.754028%)" offset="0.523438"/><stop stop-opacity="1" stop-color="rgb(54.507446%, 12.080383%, 94.880676%)" offset="0.527344"/><stop stop-opacity="1" stop-color="rgb(53.938293%, 12.876892%, 95.00885%)" offset="0.53125"/><stop stop-opacity="1" stop-color="rgb(53.369141%, 13.673401%, 95.137024%)" offset="0.535156"/><stop stop-opacity="1" stop-color="rgb(52.799988%, 14.46991%, 95.265198%)" offset="0.539062"/><stop stop-opacity="1" stop-color="rgb(52.230835%, 15.266418%, 95.393372%)" offset="0.542969"/><stop stop-opacity="1" stop-color="rgb(51.661682%, 16.062927%, 95.521545%)" offset="0.546875"/><stop stop-opacity="1" stop-color="rgb(51.092529%, 16.859436%, 95.649719%)" offset="0.550781"/><stop stop-opacity="1" stop-color="rgb(50.523376%, 17.655945%, 95.777893%)" offset="0.554688"/><stop stop-opacity="1" stop-color="rgb(49.954224%, 18.452454%, 95.906067%)" offset="0.558594"/><stop stop-opacity="1" stop-color="rgb(49.386597%, 19.248962%, 96.034241%)" offset="0.5625"/><stop stop-opacity="1" stop-color="rgb(48.817444%, 20.045471%, 96.160889%)" offset="0.566406"/><stop stop-opacity="1" stop-color="rgb(48.248291%, 20.84198%, 96.289062%)" offset="0.570312"/><stop stop-opacity="1" stop-color="rgb(47.679138%, 21.636963%, 96.417236%)" offset="0.574219"/><stop stop-opacity="1" stop-color="rgb(47.109985%, 22.433472%, 96.54541%)" offset="0.578125"/><stop stop-opacity="1" stop-color="rgb(46.540833%, 23.22998%, 96.673584%)" offset="0.582031"/><stop stop-opacity="1" stop-color="rgb(45.97168%, 24.026489%, 96.801758%)" offset="0.585938"/><stop stop-opacity="1" stop-color="rgb(45.402527%, 24.822998%, 96.929932%)" offset="0.589844"/><stop stop-opacity="1" stop-color="rgb(44.833374%, 25.619507%, 97.058105%)" offset="0.59375"/><stop stop-opacity="1" stop-color="rgb(44.264221%, 26.416016%, 97.184753%)" offset="0.597656"/><stop stop-opacity="1" stop-color="rgb(43.696594%, 27.212524%, 97.312927%)" offset="0.601562"/><stop stop-opacity="1" stop-color="rgb(43.127441%, 28.009033%, 97.441101%)" offset="0.605469"/><stop stop-opacity="1" stop-color="rgb(42.558289%, 28.805542%, 97.569275%)" offset="0.609375"/><stop stop-opacity="1" stop-color="rgb(41.989136%, 29.602051%, 97.697449%)" offset="0.613281"/><stop stop-opacity="1" stop-color="rgb(41.419983%, 30.39856%, 97.825623%)" offset="0.617188"/><stop stop-opacity="1" stop-color="rgb(40.85083%, 31.193542%, 97.953796%)" offset="0.621094"/><stop stop-opacity="1" stop-color="rgb(40.281677%, 31.990051%, 98.08197%)" offset="0.625"/><stop stop-opacity="1" stop-color="rgb(39.712524%, 32.78656%, 98.210144%)" offset="0.628906"/><stop stop-opacity="1" stop-color="rgb(39.143372%, 33.583069%, 98.338318%)" offset="0.632812"/><stop stop-opacity="1" stop-color="rgb(38.574219%, 34.379578%, 98.464966%)" offset="0.636719"/><stop stop-opacity="1" stop-color="rgb(38.006592%, 35.176086%, 98.59314%)" offset="0.640625"/><stop stop-opacity="1" stop-color="rgb(37.437439%, 35.972595%, 98.721313%)" offset="0.644531"/><stop stop-opacity="1" stop-color="rgb(36.868286%, 36.769104%, 98.849487%)" offset="0.648438"/><stop stop-opacity="1" stop-color="rgb(36.299133%, 37.565613%, 98.977661%)" offset="0.652344"/><stop stop-opacity="1" stop-color="rgb(35.72998%, 38.362122%, 99.105835%)" offset="0.65625"/><stop stop-opacity="1" stop-color="rgb(35.160828%, 39.15863%, 99.234009%)" offset="0.660156"/><stop stop-opacity="1" stop-color="rgb(34.591675%, 39.955139%, 99.362183%)" offset="0.664062"/><stop stop-opacity="1" stop-color="rgb(34.022522%, 40.751648%, 99.490356%)" offset="0.667969"/><stop stop-opacity="1" stop-color="rgb(33.453369%, 41.548157%, 99.61853%)" offset="0.671875"/><stop stop-opacity="1" stop-color="rgb(32.884216%, 42.34314%, 99.745178%)" offset="0.675781"/><stop stop-opacity="1" stop-color="rgb(32.315063%, 43.139648%, 99.873352%)" offset="0.679688"/><stop stop-opacity="1" stop-color="rgb(32.037354%, 43.528748%, 99.935913%)" offset="0.683594"/><stop stop-opacity="1" stop-color="rgb(31.759644%, 43.919373%, 100%)" offset="0.6875"/><stop stop-opacity="1" stop-color="rgb(31.759644%, 43.919373%, 100%)" offset="0.75"/><stop stop-opacity="1" stop-color="rgb(31.759644%, 43.919373%, 100%)" offset="1"/></linearGradient><clipPath id="7ad416e631"><path d="M 221 104 L 321 104 L 321 175 L 221 175 Z M 221 104 " clip-rule="nonzero"/></clipPath><clipPath id="88466f1db9"><path d="M 258.746094 211.769531 L 186.886719 139.910156 L 254.84375 71.953125 L 326.703125 143.8125 Z M 258.746094 211.769531 " clip-rule="nonzero"/></clipPath><clipPath id="8b75a0a34e"><path d="M 258.746094 211.769531 L 186.886719 139.910156 L 254.84375 71.953125 L 326.703125 143.8125 Z M 258.746094 211.769531 " clip-rule="nonzero"/></clipPath><clipPath id="f3e2555bef"><path d="M 274.507812 148.644531 L 221.84375 148.644531 L 221.851562 153.019531 L 274.511719 153.015625 Z M 221.792969 109.238281 L 258.757812 109.238281 L 258.757812 104.867188 L 221.789062 104.871094 Z M 221.828125 120.167969 L 284.261719 120.167969 L 284.261719 115.792969 L 221.820312 115.792969 Z M 221.875 170.53125 L 221.878906 174.902344 L 292.5 174.902344 L 292.519531 170.546875 Z M 221.851562 163.980469 L 306.4375 163.972656 L 306.433594 159.601562 L 221.859375 159.589844 Z M 221.804688 131.140625 L 303.046875 131.125 L 303.046875 126.757812 L 221.820312 126.753906 Z M 221.839844 142.070312 L 320.535156 142.070312 L 320.539062 137.699219 L 221.835938 137.699219 Z M 221.839844 142.070312 " clip-rule="nonzero"/></clipPath><linearGradient x1="-3630.180821" gradientTransform="matrix(0.577108, 0, 0, 0.577108, 2316.795331, -1715.817617)" y1="3215.53" x2="-3459.068048" gradientUnits="userSpaceOnUse" y2="3215.53" id="df8b3ca8e6"><stop stop-opacity="1" stop-color="rgb(54.899597%, 0%, 92.939758%)" offset="0"/><stop stop-opacity="1" stop-color="rgb(55.039978%, 0.349426%, 92.91687%)" offset="0.00390625"/><stop stop-opacity="1" stop-color="rgb(55.180359%, 0.700378%, 92.893982%)" offset="0.0078125"/><stop stop-opacity="1" stop-color="rgb(55.32074%, 1.051331%, 92.869568%)" offset="0.0117187"/><stop stop-opacity="1" stop-color="rgb(55.462646%, 1.402283%, 92.84668%)" offset="0.015625"/><stop stop-opacity="1" stop-color="rgb(55.603027%, 1.753235%, 92.823792%)" offset="0.0195312"/><stop stop-opacity="1" stop-color="rgb(55.744934%, 2.104187%, 92.800903%)" offset="0.0234375"/><stop stop-opacity="1" stop-color="rgb(55.885315%, 2.453613%, 92.778015%)" offset="0.0273437"/><stop stop-opacity="1" stop-color="rgb(56.027222%, 2.804565%, 92.755127%)" offset="0.03125"/><stop stop-opacity="1" stop-color="rgb(56.167603%, 3.155518%, 92.732239%)" offset="0.0351562"/><stop stop-opacity="1" stop-color="rgb(56.307983%, 3.50647%, 92.709351%)" offset="0.0390625"/><stop stop-opacity="1" stop-color="rgb(56.448364%, 3.857422%, 92.686462%)" offset="0.0429687"/><stop stop-opacity="1" stop-color="rgb(56.590271%, 4.208374%, 92.663574%)" offset="0.046875"/><stop stop-opacity="1" stop-color="rgb(56.730652%, 4.559326%, 92.640686%)" offset="0.0507812"/><stop stop-opacity="1" stop-color="rgb(56.872559%, 4.910278%, 92.617798%)" offset="0.0546875"/><stop stop-opacity="1" stop-color="rgb(57.012939%, 5.26123%, 92.59491%)" offset="0.0585937"/><stop stop-opacity="1" stop-color="rgb(57.154846%, 5.612183%, 92.572021%)" offset="0.0625"/><stop stop-opacity="1" stop-color="rgb(57.295227%, 5.961609%, 92.549133%)" offset="0.0664062"/><stop stop-opacity="1" stop-color="rgb(57.435608%, 6.312561%, 92.526245%)" offset="0.0703125"/><stop stop-opacity="1" stop-color="rgb(57.575989%, 6.663513%, 92.503357%)" offset="0.0742187"/><stop stop-opacity="1" stop-color="rgb(57.717896%, 7.014465%, 92.480469%)" offset="0.078125"/><stop stop-opacity="1" stop-color="rgb(57.858276%, 7.365417%, 92.456055%)" offset="0.0820312"/><stop stop-opacity="1" stop-color="rgb(58.000183%, 7.71637%, 92.433167%)" offset="0.0859375"/><stop stop-opacity="1" stop-color="rgb(58.140564%, 8.067322%, 92.410278%)" offset="0.0898438"/><stop stop-opacity="1" stop-color="rgb(58.282471%, 8.418274%, 92.38739%)" offset="0.09375"/><stop stop-opacity="1" stop-color="rgb(58.422852%, 8.769226%, 92.364502%)" offset="0.0976562"/><stop stop-opacity="1" stop-color="rgb(58.563232%, 9.120178%, 92.341614%)" offset="0.101562"/><stop stop-opacity="1" stop-color="rgb(58.703613%, 9.47113%, 92.318726%)" offset="0.105469"/><stop stop-opacity="1" stop-color="rgb(58.84552%, 9.822083%, 92.295837%)" offset="0.109375"/><stop stop-opacity="1" stop-color="rgb(58.985901%, 10.171509%, 92.272949%)" offset="0.113281"/><stop stop-opacity="1" stop-color="rgb(59.127808%, 10.522461%, 92.250061%)" offset="0.117187"/><stop stop-opacity="1" stop-color="rgb(59.268188%, 10.873413%, 92.227173%)" offset="0.121094"/><stop stop-opacity="1" stop-color="rgb(59.410095%, 11.224365%, 92.204285%)" offset="0.125"/><stop stop-opacity="1" stop-color="rgb(59.550476%, 11.575317%, 92.181396%)" offset="0.128906"/><stop stop-opacity="1" stop-color="rgb(59.690857%, 11.92627%, 92.158508%)" offset="0.132812"/><stop stop-opacity="1" stop-color="rgb(59.831238%, 12.277222%, 92.13562%)" offset="0.136719"/><stop stop-opacity="1" stop-color="rgb(59.973145%, 12.628174%, 92.112732%)" offset="0.140625"/><stop stop-opacity="1" stop-color="rgb(60.113525%, 12.979126%, 92.089844%)" offset="0.144531"/><stop stop-opacity="1" stop-color="rgb(60.255432%, 13.330078%, 92.066956%)" offset="0.148437"/><stop stop-opacity="1" stop-color="rgb(60.395813%, 13.679504%, 92.044067%)" offset="0.152344"/><stop stop-opacity="1" stop-color="rgb(60.53772%, 14.030457%, 92.021179%)" offset="0.15625"/><stop stop-opacity="1" stop-color="rgb(60.678101%, 14.381409%, 91.996765%)" offset="0.160156"/><stop stop-opacity="1" stop-color="rgb(60.818481%, 14.732361%, 91.973877%)" offset="0.164062"/><stop stop-opacity="1" stop-color="rgb(60.958862%, 15.083313%, 91.950989%)" offset="0.167969"/><stop stop-opacity="1" stop-color="rgb(61.100769%, 15.434265%, 91.928101%)" offset="0.171875"/><stop stop-opacity="1" stop-color="rgb(61.24115%, 15.785217%, 91.905212%)" offset="0.175781"/><stop stop-opacity="1" stop-color="rgb(61.383057%, 16.136169%, 91.882324%)" offset="0.179687"/><stop stop-opacity="1" stop-color="rgb(61.523438%, 16.487122%, 91.859436%)" offset="0.183594"/><stop stop-opacity="1" stop-color="rgb(61.663818%, 16.838074%, 91.836548%)" offset="0.1875"/><stop stop-opacity="1" stop-color="rgb(61.804199%, 17.1875%, 91.81366%)" offset="0.191406"/><stop stop-opacity="1" stop-color="rgb(61.946106%, 17.538452%, 91.790771%)" offset="0.195312"/><stop stop-opacity="1" stop-color="rgb(62.086487%, 17.889404%, 91.767883%)" offset="0.199219"/><stop stop-opacity="1" stop-color="rgb(62.228394%, 18.240356%, 91.744995%)" offset="0.203125"/><stop stop-opacity="1" stop-color="rgb(62.368774%, 18.591309%, 91.722107%)" offset="0.207031"/><stop stop-opacity="1" stop-color="rgb(62.510681%, 18.942261%, 91.699219%)" offset="0.210937"/><stop stop-opacity="1" stop-color="rgb(62.651062%, 19.293213%, 91.676331%)" offset="0.214844"/><stop stop-opacity="1" stop-color="rgb(62.791443%, 19.644165%, 91.653442%)" offset="0.21875"/><stop stop-opacity="1" stop-color="rgb(62.931824%, 19.995117%, 91.630554%)" offset="0.222656"/><stop stop-opacity="1" stop-color="rgb(63.07373%, 20.346069%, 91.607666%)" offset="0.226562"/><stop stop-opacity="1" stop-color="rgb(63.214111%, 20.697021%, 91.583252%)" offset="0.230469"/><stop stop-opacity="1" stop-color="rgb(63.356018%, 21.047974%, 91.560364%)" offset="0.234375"/><stop stop-opacity="1" stop-color="rgb(63.496399%, 21.3974%, 91.537476%)" offset="0.238281"/><stop stop-opacity="1" stop-color="rgb(63.638306%, 21.748352%, 91.514587%)" offset="0.242188"/><stop stop-opacity="1" stop-color="rgb(63.778687%, 22.099304%, 91.491699%)" offset="0.246094"/><stop stop-opacity="1" stop-color="rgb(63.919067%, 22.450256%, 91.468811%)" offset="0.25"/><stop stop-opacity="1" stop-color="rgb(64.059448%, 22.801208%, 91.445923%)" offset="0.253906"/><stop stop-opacity="1" stop-color="rgb(64.201355%, 23.152161%, 91.423035%)" offset="0.257812"/><stop stop-opacity="1" stop-color="rgb(64.341736%, 23.503113%, 91.400146%)" offset="0.261719"/><stop stop-opacity="1" stop-color="rgb(64.483643%, 23.854065%, 91.377258%)" offset="0.265625"/><stop stop-opacity="1" stop-color="rgb(64.624023%, 24.205017%, 91.35437%)" offset="0.269531"/><stop stop-opacity="1" stop-color="rgb(64.76593%, 24.555969%, 91.331482%)" offset="0.273438"/><stop stop-opacity="1" stop-color="rgb(64.906311%, 24.905396%, 91.308594%)" offset="0.277344"/><stop stop-opacity="1" stop-color="rgb(65.046692%, 25.256348%, 91.285706%)" offset="0.28125"/><stop stop-opacity="1" stop-color="rgb(65.187073%, 25.6073%, 91.262817%)" offset="0.285156"/><stop stop-opacity="1" stop-color="rgb(65.328979%, 25.958252%, 91.239929%)" offset="0.289062"/><stop stop-opacity="1" stop-color="rgb(65.46936%, 26.309204%, 91.217041%)" offset="0.292969"/><stop stop-opacity="1" stop-color="rgb(65.611267%, 26.660156%, 91.194153%)" offset="0.296875"/><stop stop-opacity="1" stop-color="rgb(65.751648%, 27.011108%, 91.169739%)" offset="0.300781"/><stop stop-opacity="1" stop-color="rgb(65.893555%, 27.362061%, 91.146851%)" offset="0.304688"/><stop stop-opacity="1" stop-color="rgb(66.033936%, 27.713013%, 91.123962%)" offset="0.308594"/><stop stop-opacity="1" stop-color="rgb(66.174316%, 28.063965%, 91.101074%)" offset="0.3125"/><stop stop-opacity="1" stop-color="rgb(66.314697%, 28.413391%, 91.078186%)" offset="0.316406"/><stop stop-opacity="1" stop-color="rgb(66.456604%, 28.764343%, 91.055298%)" offset="0.320312"/><stop stop-opacity="1" stop-color="rgb(66.596985%, 29.115295%, 91.03241%)" offset="0.324219"/><stop stop-opacity="1" stop-color="rgb(66.738892%, 29.466248%, 91.009521%)" offset="0.328125"/><stop stop-opacity="1" stop-color="rgb(66.879272%, 29.8172%, 90.986633%)" offset="0.332031"/><stop stop-opacity="1" stop-color="rgb(67.021179%, 30.168152%, 90.963745%)" offset="0.335938"/><stop stop-opacity="1" stop-color="rgb(67.16156%, 30.519104%, 90.940857%)" offset="0.339844"/><stop stop-opacity="1" stop-color="rgb(67.301941%, 30.870056%, 90.917969%)" offset="0.34375"/><stop stop-opacity="1" stop-color="rgb(67.442322%, 31.221008%, 90.895081%)" offset="0.347656"/><stop stop-opacity="1" stop-color="rgb(67.584229%, 31.57196%, 90.872192%)" offset="0.351562"/><stop stop-opacity="1" stop-color="rgb(67.724609%, 31.921387%, 90.849304%)" offset="0.355469"/><stop stop-opacity="1" stop-color="rgb(67.866516%, 32.272339%, 90.826416%)" offset="0.359375"/><stop stop-opacity="1" stop-color="rgb(68.006897%, 32.623291%, 90.803528%)" offset="0.363281"/><stop stop-opacity="1" stop-color="rgb(68.148804%, 32.974243%, 90.78064%)" offset="0.367188"/><stop stop-opacity="1" stop-color="rgb(68.289185%, 33.325195%, 90.757751%)" offset="0.371094"/><stop stop-opacity="1" stop-color="rgb(68.429565%, 33.676147%, 90.734863%)" offset="0.375"/><stop stop-opacity="1" stop-color="rgb(68.569946%, 34.0271%, 90.710449%)" offset="0.378906"/><stop stop-opacity="1" stop-color="rgb(68.711853%, 34.378052%, 90.687561%)" offset="0.382812"/><stop stop-opacity="1" stop-color="rgb(68.852234%, 34.729004%, 90.664673%)" offset="0.386719"/><stop stop-opacity="1" stop-color="rgb(68.994141%, 35.079956%, 90.641785%)" offset="0.390625"/><stop stop-opacity="1" stop-color="rgb(69.134521%, 35.430908%, 90.618896%)" offset="0.394531"/><stop stop-opacity="1" stop-color="rgb(69.276428%, 35.78186%, 90.596008%)" offset="0.398438"/><stop stop-opacity="1" stop-color="rgb(69.416809%, 36.131287%, 90.57312%)" offset="0.402344"/><stop stop-opacity="1" stop-color="rgb(69.55719%, 36.482239%, 90.550232%)" offset="0.40625"/><stop stop-opacity="1" stop-color="rgb(69.697571%, 36.833191%, 90.527344%)" offset="0.410156"/><stop stop-opacity="1" stop-color="rgb(69.839478%, 37.184143%, 90.504456%)" offset="0.414062"/><stop stop-opacity="1" stop-color="rgb(69.979858%, 37.535095%, 90.481567%)" offset="0.417969"/><stop stop-opacity="1" stop-color="rgb(70.121765%, 37.886047%, 90.458679%)" offset="0.421875"/><stop stop-opacity="1" stop-color="rgb(70.262146%, 38.237%, 90.435791%)" offset="0.425781"/><stop stop-opacity="1" stop-color="rgb(70.404053%, 38.587952%, 90.412903%)" offset="0.429688"/><stop stop-opacity="1" stop-color="rgb(70.544434%, 38.938904%, 90.390015%)" offset="0.433594"/><stop stop-opacity="1" stop-color="rgb(70.684814%, 39.289856%, 90.367126%)" offset="0.4375"/><stop stop-opacity="1" stop-color="rgb(70.825195%, 39.639282%, 90.344238%)" offset="0.441406"/><stop stop-opacity="1" stop-color="rgb(70.967102%, 39.990234%, 90.32135%)" offset="0.445312"/><stop stop-opacity="1" stop-color="rgb(71.107483%, 40.341187%, 90.296936%)" offset="0.449219"/><stop stop-opacity="1" stop-color="rgb(71.24939%, 40.692139%, 90.274048%)" offset="0.453125"/><stop stop-opacity="1" stop-color="rgb(71.389771%, 41.043091%, 90.25116%)" offset="0.457031"/><stop stop-opacity="1" stop-color="rgb(71.531677%, 41.394043%, 90.228271%)" offset="0.460938"/><stop stop-opacity="1" stop-color="rgb(71.672058%, 41.744995%, 90.205383%)" offset="0.464844"/><stop stop-opacity="1" stop-color="rgb(71.812439%, 42.095947%, 90.182495%)" offset="0.46875"/><stop stop-opacity="1" stop-color="rgb(71.95282%, 42.446899%, 90.159607%)" offset="0.472656"/><stop stop-opacity="1" stop-color="rgb(72.094727%, 42.797852%, 90.136719%)" offset="0.476562"/><stop stop-opacity="1" stop-color="rgb(72.235107%, 43.147278%, 90.113831%)" offset="0.480469"/><stop stop-opacity="1" stop-color="rgb(72.377014%, 43.49823%, 90.090942%)" offset="0.484375"/><stop stop-opacity="1" stop-color="rgb(72.517395%, 43.849182%, 90.068054%)" offset="0.488281"/><stop stop-opacity="1" stop-color="rgb(72.657776%, 44.200134%, 90.045166%)" offset="0.492187"/><stop stop-opacity="1" stop-color="rgb(72.798157%, 44.551086%, 90.022278%)" offset="0.496094"/><stop stop-opacity="1" stop-color="rgb(72.940063%, 44.902039%, 89.99939%)" offset="0.5"/><stop stop-opacity="1" stop-color="rgb(73.080444%, 45.252991%, 89.976501%)" offset="0.503906"/><stop stop-opacity="1" stop-color="rgb(73.222351%, 45.603943%, 89.953613%)" offset="0.507812"/><stop stop-opacity="1" stop-color="rgb(73.362732%, 45.954895%, 89.930725%)" offset="0.511719"/><stop stop-opacity="1" stop-color="rgb(73.504639%, 46.305847%, 89.907837%)" offset="0.515625"/><stop stop-opacity="1" stop-color="rgb(73.64502%, 46.656799%, 89.883423%)" offset="0.519531"/><stop stop-opacity="1" stop-color="rgb(73.7854%, 47.007751%, 89.860535%)" offset="0.523437"/><stop stop-opacity="1" stop-color="rgb(73.925781%, 47.357178%, 89.837646%)" offset="0.527344"/><stop stop-opacity="1" stop-color="rgb(74.067688%, 47.70813%, 89.814758%)" offset="0.53125"/><stop stop-opacity="1" stop-color="rgb(74.208069%, 48.059082%, 89.79187%)" offset="0.535156"/><stop stop-opacity="1" stop-color="rgb(74.349976%, 48.410034%, 89.768982%)" offset="0.539062"/><stop stop-opacity="1" stop-color="rgb(74.490356%, 48.760986%, 89.746094%)" offset="0.542969"/><stop stop-opacity="1" stop-color="rgb(74.632263%, 49.111938%, 89.723206%)" offset="0.546875"/><stop stop-opacity="1" stop-color="rgb(74.772644%, 49.462891%, 89.700317%)" offset="0.550781"/><stop stop-opacity="1" stop-color="rgb(74.913025%, 49.813843%, 89.677429%)" offset="0.554687"/><stop stop-opacity="1" stop-color="rgb(75.053406%, 50.164795%, 89.654541%)" offset="0.558594"/><stop stop-opacity="1" stop-color="rgb(75.195312%, 50.515747%, 89.631653%)" offset="0.5625"/><stop stop-opacity="1" stop-color="rgb(75.335693%, 50.865173%, 89.608765%)" offset="0.566406"/><stop stop-opacity="1" stop-color="rgb(75.4776%, 51.216125%, 89.585876%)" offset="0.570312"/><stop stop-opacity="1" stop-color="rgb(75.617981%, 51.567078%, 89.562988%)" offset="0.574219"/><stop stop-opacity="1" stop-color="rgb(75.759888%, 51.91803%, 89.5401%)" offset="0.578125"/><stop stop-opacity="1" stop-color="rgb(75.900269%, 52.268982%, 89.517212%)" offset="0.582031"/><stop stop-opacity="1" stop-color="rgb(76.040649%, 52.619934%, 89.494324%)" offset="0.585937"/><stop stop-opacity="1" stop-color="rgb(76.18103%, 52.970886%, 89.46991%)" offset="0.589844"/><stop stop-opacity="1" stop-color="rgb(76.322937%, 53.321838%, 89.447021%)" offset="0.59375"/><stop stop-opacity="1" stop-color="rgb(76.463318%, 53.672791%, 89.424133%)" offset="0.597656"/><stop stop-opacity="1" stop-color="rgb(76.605225%, 54.023743%, 89.401245%)" offset="0.601562"/><stop stop-opacity="1" stop-color="rgb(76.745605%, 54.373169%, 89.378357%)" offset="0.605469"/><stop stop-opacity="1" stop-color="rgb(76.887512%, 54.724121%, 89.355469%)" offset="0.609375"/><stop stop-opacity="1" stop-color="rgb(77.027893%, 55.075073%, 89.332581%)" offset="0.613281"/><stop stop-opacity="1" stop-color="rgb(77.168274%, 55.426025%, 89.309692%)" offset="0.617187"/><stop stop-opacity="1" stop-color="rgb(77.308655%, 55.776978%, 89.286804%)" offset="0.621094"/><stop stop-opacity="1" stop-color="rgb(77.450562%, 56.12793%, 89.263916%)" offset="0.625"/><stop stop-opacity="1" stop-color="rgb(77.590942%, 56.478882%, 89.241028%)" offset="0.628906"/><stop stop-opacity="1" stop-color="rgb(77.732849%, 56.829834%, 89.21814%)" offset="0.632812"/><stop stop-opacity="1" stop-color="rgb(77.87323%, 57.180786%, 89.195251%)" offset="0.636719"/><stop stop-opacity="1" stop-color="rgb(78.015137%, 57.531738%, 89.172363%)" offset="0.640625"/><stop stop-opacity="1" stop-color="rgb(78.155518%, 57.881165%, 89.149475%)" offset="0.644531"/><stop stop-opacity="1" stop-color="rgb(78.295898%, 58.232117%, 89.126587%)" offset="0.648437"/><stop stop-opacity="1" stop-color="rgb(78.436279%, 58.583069%, 89.103699%)" offset="0.652344"/><stop stop-opacity="1" stop-color="rgb(78.578186%, 58.934021%, 89.080811%)" offset="0.65625"/><stop stop-opacity="1" stop-color="rgb(78.718567%, 59.284973%, 89.057922%)" offset="0.660156"/><stop stop-opacity="1" stop-color="rgb(78.860474%, 59.635925%, 89.035034%)" offset="0.664062"/><stop stop-opacity="1" stop-color="rgb(79.000854%, 59.986877%, 89.01062%)" offset="0.667969"/><stop stop-opacity="1" stop-color="rgb(79.142761%, 60.33783%, 88.987732%)" offset="0.671875"/><stop stop-opacity="1" stop-color="rgb(79.283142%, 60.688782%, 88.964844%)" offset="0.675781"/><stop stop-opacity="1" stop-color="rgb(79.423523%, 61.039734%, 88.941956%)" offset="0.679687"/><stop stop-opacity="1" stop-color="rgb(79.563904%, 61.390686%, 88.919067%)" offset="0.683594"/><stop stop-opacity="1" stop-color="rgb(79.705811%, 61.741638%, 88.896179%)" offset="0.6875"/><stop stop-opacity="1" stop-color="rgb(79.846191%, 62.091064%, 88.873291%)" offset="0.691406"/><stop stop-opacity="1" stop-color="rgb(79.988098%, 62.442017%, 88.850403%)" offset="0.695312"/><stop stop-opacity="1" stop-color="rgb(80.128479%, 62.792969%, 88.827515%)" offset="0.699219"/><stop stop-opacity="1" stop-color="rgb(80.270386%, 63.143921%, 88.804626%)" offset="0.703125"/><stop stop-opacity="1" stop-color="rgb(80.410767%, 63.494873%, 88.781738%)" offset="0.707031"/><stop stop-opacity="1" stop-color="rgb(80.551147%, 63.845825%, 88.75885%)" offset="0.710937"/><stop stop-opacity="1" stop-color="rgb(80.691528%, 64.196777%, 88.735962%)" offset="0.714844"/><stop stop-opacity="1" stop-color="rgb(80.833435%, 64.547729%, 88.713074%)" offset="0.71875"/><stop stop-opacity="1" stop-color="rgb(80.973816%, 64.898682%, 88.690186%)" offset="0.722656"/><stop stop-opacity="1" stop-color="rgb(81.115723%, 65.249634%, 88.667297%)" offset="0.726562"/><stop stop-opacity="1" stop-color="rgb(81.256104%, 65.59906%, 88.644409%)" offset="0.730469"/><stop stop-opacity="1" stop-color="rgb(81.39801%, 65.950012%, 88.621521%)" offset="0.734375"/><stop stop-opacity="1" stop-color="rgb(81.538391%, 66.300964%, 88.597107%)" offset="0.738281"/><stop stop-opacity="1" stop-color="rgb(81.678772%, 66.651917%, 88.574219%)" offset="0.742187"/><stop stop-opacity="1" stop-color="rgb(81.819153%, 67.002869%, 88.551331%)" offset="0.746094"/><stop stop-opacity="1" stop-color="rgb(81.96106%, 67.353821%, 88.528442%)" offset="0.75"/><stop stop-opacity="1" stop-color="rgb(82.10144%, 67.704773%, 88.505554%)" offset="0.753906"/><stop stop-opacity="1" stop-color="rgb(82.243347%, 68.055725%, 88.482666%)" offset="0.757812"/><stop stop-opacity="1" stop-color="rgb(82.383728%, 68.406677%, 88.459778%)" offset="0.761719"/><stop stop-opacity="1" stop-color="rgb(82.525635%, 68.757629%, 88.43689%)" offset="0.765625"/><stop stop-opacity="1" stop-color="rgb(82.666016%, 69.107056%, 88.414001%)" offset="0.769531"/><stop stop-opacity="1" stop-color="rgb(82.806396%, 69.458008%, 88.391113%)" offset="0.773437"/><stop stop-opacity="1" stop-color="rgb(82.946777%, 69.80896%, 88.368225%)" offset="0.777344"/><stop stop-opacity="1" stop-color="rgb(83.088684%, 70.159912%, 88.345337%)" offset="0.78125"/><stop stop-opacity="1" stop-color="rgb(83.229065%, 70.510864%, 88.322449%)" offset="0.785156"/><stop stop-opacity="1" stop-color="rgb(83.370972%, 70.861816%, 88.299561%)" offset="0.789062"/><stop stop-opacity="1" stop-color="rgb(83.511353%, 71.212769%, 88.276672%)" offset="0.792969"/><stop stop-opacity="1" stop-color="rgb(83.651733%, 71.563721%, 88.253784%)" offset="0.796875"/><stop stop-opacity="1" stop-color="rgb(83.792114%, 71.914673%, 88.230896%)" offset="0.800781"/><stop stop-opacity="1" stop-color="rgb(83.934021%, 72.265625%, 88.208008%)" offset="0.804687"/><stop stop-opacity="1" stop-color="rgb(84.074402%, 72.616577%, 88.183594%)" offset="0.808594"/><stop stop-opacity="1" stop-color="rgb(84.216309%, 72.967529%, 88.160706%)" offset="0.8125"/><stop stop-opacity="1" stop-color="rgb(84.356689%, 73.316956%, 88.137817%)" offset="0.816406"/><stop stop-opacity="1" stop-color="rgb(84.498596%, 73.667908%, 88.114929%)" offset="0.820312"/><stop stop-opacity="1" stop-color="rgb(84.638977%, 74.01886%, 88.092041%)" offset="0.824219"/><stop stop-opacity="1" stop-color="rgb(84.779358%, 74.369812%, 88.069153%)" offset="0.828125"/><stop stop-opacity="1" stop-color="rgb(84.919739%, 74.720764%, 88.046265%)" offset="0.832031"/><stop stop-opacity="1" stop-color="rgb(85.061646%, 75.071716%, 88.023376%)" offset="0.835937"/><stop stop-opacity="1" stop-color="rgb(85.202026%, 75.422668%, 88.000488%)" offset="0.839844"/><stop stop-opacity="1" stop-color="rgb(85.343933%, 75.773621%, 87.9776%)" offset="0.84375"/><stop stop-opacity="1" stop-color="rgb(85.484314%, 76.124573%, 87.954712%)" offset="0.847656"/><stop stop-opacity="1" stop-color="rgb(85.626221%, 76.475525%, 87.931824%)" offset="0.851562"/><stop stop-opacity="1" stop-color="rgb(85.766602%, 76.824951%, 87.908936%)" offset="0.855469"/><stop stop-opacity="1" stop-color="rgb(85.906982%, 77.175903%, 87.886047%)" offset="0.859375"/><stop stop-opacity="1" stop-color="rgb(86.047363%, 77.526855%, 87.863159%)" offset="0.863281"/><stop stop-opacity="1" stop-color="rgb(86.18927%, 77.877808%, 87.840271%)" offset="0.867187"/><stop stop-opacity="1" stop-color="rgb(86.329651%, 78.22876%, 87.817383%)" offset="0.871094"/><stop stop-opacity="1" stop-color="rgb(86.471558%, 78.579712%, 87.794495%)" offset="0.875"/><stop stop-opacity="1" stop-color="rgb(86.611938%, 78.930664%, 87.770081%)" offset="0.878906"/><stop stop-opacity="1" stop-color="rgb(86.753845%, 79.281616%, 87.747192%)" offset="0.882812"/><stop stop-opacity="1" stop-color="rgb(86.894226%, 79.632568%, 87.724304%)" offset="0.886719"/><stop stop-opacity="1" stop-color="rgb(87.034607%, 79.983521%, 87.701416%)" offset="0.890625"/><stop stop-opacity="1" stop-color="rgb(87.174988%, 80.332947%, 87.678528%)" offset="0.894531"/><stop stop-opacity="1" stop-color="rgb(87.316895%, 80.683899%, 87.65564%)" offset="0.898438"/><stop stop-opacity="1" stop-color="rgb(87.457275%, 81.034851%, 87.632751%)" offset="0.902344"/><stop stop-opacity="1" stop-color="rgb(87.599182%, 81.385803%, 87.609863%)" offset="0.90625"/><stop stop-opacity="1" stop-color="rgb(87.739563%, 81.736755%, 87.586975%)" offset="0.910156"/><stop stop-opacity="1" stop-color="rgb(87.88147%, 82.087708%, 87.564087%)" offset="0.914062"/><stop stop-opacity="1" stop-color="rgb(88.021851%, 82.43866%, 87.541199%)" offset="0.917969"/><stop stop-opacity="1" stop-color="rgb(88.162231%, 82.789612%, 87.518311%)" offset="0.921875"/><stop stop-opacity="1" stop-color="rgb(88.302612%, 83.140564%, 87.495422%)" offset="0.925781"/><stop stop-opacity="1" stop-color="rgb(88.444519%, 83.491516%, 87.472534%)" offset="0.929687"/><stop stop-opacity="1" stop-color="rgb(88.5849%, 83.840942%, 87.449646%)" offset="0.933594"/><stop stop-opacity="1" stop-color="rgb(88.726807%, 84.191895%, 87.426758%)" offset="0.9375"/><stop stop-opacity="1" stop-color="rgb(88.867188%, 84.542847%, 87.40387%)" offset="0.941406"/><stop stop-opacity="1" stop-color="rgb(89.009094%, 84.893799%, 87.380981%)" offset="0.945312"/><stop stop-opacity="1" stop-color="rgb(89.149475%, 85.244751%, 87.358093%)" offset="0.949219"/><stop stop-opacity="1" stop-color="rgb(89.289856%, 85.595703%, 87.335205%)" offset="0.953125"/><stop stop-opacity="1" stop-color="rgb(89.430237%, 85.946655%, 87.310791%)" offset="0.957031"/><stop stop-opacity="1" stop-color="rgb(89.572144%, 86.297607%, 87.287903%)" offset="0.960937"/><stop stop-opacity="1" stop-color="rgb(89.712524%, 86.64856%, 87.265015%)" offset="0.964844"/><stop stop-opacity="1" stop-color="rgb(89.854431%, 86.999512%, 87.242126%)" offset="0.96875"/><stop stop-opacity="1" stop-color="rgb(89.994812%, 87.350464%, 87.219238%)" offset="0.972656"/><stop stop-opacity="1" stop-color="rgb(90.136719%, 87.701416%, 87.19635%)" offset="0.976562"/><stop stop-opacity="1" stop-color="rgb(90.2771%, 88.050842%, 87.173462%)" offset="0.980469"/><stop stop-opacity="1" stop-color="rgb(90.41748%, 88.401794%, 87.150574%)" offset="0.984375"/><stop stop-opacity="1" stop-color="rgb(90.557861%, 88.752747%, 87.127686%)" offset="0.988281"/><stop stop-opacity="1" stop-color="rgb(90.699768%, 89.103699%, 87.104797%)" offset="0.992188"/><stop stop-opacity="1" stop-color="rgb(90.838623%, 89.451599%, 87.081909%)" offset="0.996094"/><stop stop-opacity="1" stop-color="rgb(90.979004%, 89.7995%, 87.059021%)" offset="1"/></linearGradient><clipPath id="daf6849fd5"><path d="M 133 0.398438 L 227 0.398438 L 227 291 L 133 291 Z M 133 0.398438 " clip-rule="nonzero"/></clipPath><clipPath id="31ba76f025"><path d="M 153.050781 310.074219 L -0.046875 156.972656 L 156.175781 0.75 L 309.273438 153.847656 Z M 153.050781 310.074219 " clip-rule="nonzero"/></clipPath><clipPath id="82609a7077"><path d="M 153.050781 310.074219 L -0.046875 156.972656 L 156.175781 0.75 L 309.273438 153.847656 Z M 153.050781 310.074219 " clip-rule="nonzero"/></clipPath><clipPath id="4fa578f662"><path d="M 133.78125 231.976562 L 133.78125 236.332031 C 135.03125 236.332031 136.28125 236.269531 137.527344 236.144531 C 138.773438 236.019531 140.011719 235.835938 141.238281 235.589844 C 142.46875 235.34375 143.679688 235.039062 144.878906 234.675781 C 146.078125 234.308594 147.253906 233.886719 148.410156 233.40625 C 149.566406 232.929688 150.699219 232.394531 151.800781 231.800781 C 152.90625 231.210938 153.980469 230.566406 155.019531 229.871094 C 156.0625 229.175781 157.066406 228.429688 158.035156 227.636719 C 159 226.839844 159.929688 226 160.8125 225.117188 C 161.699219 224.230469 162.539062 223.304688 163.335938 222.335938 C 164.128906 221.367188 164.875 220.363281 165.570312 219.320312 C 166.265625 218.28125 166.910156 217.207031 167.5 216.105469 C 168.089844 215 168.628906 213.867188 169.105469 212.710938 C 169.585938 211.554688 170.007812 210.378906 170.375 209.179688 C 170.738281 207.980469 171.042969 206.769531 171.289062 205.539062 C 171.535156 204.3125 171.71875 203.074219 171.84375 201.828125 C 171.964844 200.582031 172.03125 199.335938 172.03125 198.082031 L 172.03125 16.242188 L 167.675781 11.886719 L 167.675781 198.082031 C 167.675781 199.191406 167.621094 200.296875 167.511719 201.402344 C 167.402344 202.507812 167.238281 203.605469 167.019531 204.691406 C 166.800781 205.78125 166.53125 206.855469 166.210938 207.917969 C 165.886719 208.980469 165.511719 210.023438 165.085938 211.046875 C 164.660156 212.074219 164.1875 213.074219 163.664062 214.054688 C 163.140625 215.03125 162.570312 215.984375 161.953125 216.90625 C 161.335938 217.828125 160.675781 218.71875 159.972656 219.574219 C 159.269531 220.433594 158.523438 221.253906 157.738281 222.039062 C 156.953125 222.824219 156.132812 223.570312 155.273438 224.273438 C 154.417969 224.976562 153.527344 225.636719 152.605469 226.253906 C 151.679688 226.871094 150.730469 227.441406 149.753906 227.964844 C 148.773438 228.488281 147.773438 228.964844 146.746094 229.386719 C 145.722656 229.8125 144.679688 230.1875 143.617188 230.511719 C 142.554688 230.832031 141.480469 231.101562 140.390625 231.320312 C 139.300781 231.539062 138.207031 231.703125 137.101562 231.8125 C 135.996094 231.921875 134.890625 231.976562 133.78125 231.976562 Z M 156.765625 198.097656 C 156.765625 198.851562 156.726562 199.601562 156.652344 200.351562 C 156.578125 201.101562 156.46875 201.84375 156.320312 202.582031 C 156.171875 203.320312 155.988281 204.050781 155.769531 204.773438 C 155.550781 205.492188 155.296875 206.199219 155.007812 206.894531 C 154.71875 207.59375 154.398438 208.273438 154.042969 208.9375 C 153.6875 209.601562 153.300781 210.246094 152.882812 210.871094 C 152.464844 211.496094 152.015625 212.101562 151.539062 212.683594 C 151.058594 213.265625 150.554688 213.824219 150.023438 214.355469 C 149.488281 214.886719 148.933594 215.394531 148.351562 215.871094 C 147.769531 216.347656 147.164062 216.796875 146.539062 217.214844 C 145.910156 217.632812 145.265625 218.019531 144.601562 218.375 C 143.9375 218.730469 143.257812 219.054688 142.5625 219.34375 C 141.867188 219.632812 141.160156 219.882812 140.4375 220.105469 C 139.71875 220.324219 138.988281 220.507812 138.25 220.652344 C 137.511719 220.800781 136.765625 220.914062 136.019531 220.988281 C 135.269531 221.0625 134.515625 221.097656 133.765625 221.101562 L 133.765625 225.453125 C 134.660156 225.453125 135.554688 225.410156 136.445312 225.320312 C 137.335938 225.230469 138.21875 225.097656 139.097656 224.921875 C 139.976562 224.746094 140.84375 224.527344 141.703125 224.269531 C 142.558594 224.007812 143.398438 223.707031 144.226562 223.363281 C 145.054688 223.019531 145.863281 222.636719 146.652344 222.214844 C 147.441406 221.789062 148.210938 221.332031 148.953125 220.832031 C 149.699219 220.335938 150.417969 219.800781 151.109375 219.234375 C 151.800781 218.664062 152.464844 218.0625 153.097656 217.429688 C 153.730469 216.796875 154.332031 216.136719 154.898438 215.441406 C 155.46875 214.75 156 214.03125 156.5 213.289062 C 156.996094 212.542969 157.457031 211.777344 157.878906 210.988281 C 158.300781 210.195312 158.683594 209.386719 159.027344 208.5625 C 159.371094 207.734375 159.671875 206.890625 159.933594 206.035156 C 160.195312 205.179688 160.414062 204.3125 160.589844 203.433594 C 160.765625 202.554688 160.898438 201.667969 160.984375 200.777344 C 161.074219 199.886719 161.121094 198.992188 161.121094 198.097656 L 161.128906 5.339844 L 156.78125 0.992188 Z M 165.449219 229.757812 C 163.375 231.84375 161.117188 233.703125 158.671875 235.34375 C 156.230469 236.980469 153.648438 238.363281 150.929688 239.488281 C 148.210938 240.613281 145.410156 241.460938 142.523438 242.03125 C 139.636719 242.601562 136.722656 242.878906 133.78125 242.871094 L 133.78125 247.226562 C 135.390625 247.226562 136.996094 247.148438 138.597656 246.988281 C 140.199219 246.832031 141.789062 246.59375 143.367188 246.28125 C 144.945312 245.964844 146.507812 245.574219 148.046875 245.109375 C 149.585938 244.640625 151.101562 244.097656 152.589844 243.484375 C 154.074219 242.867188 155.527344 242.179688 156.949219 241.421875 C 158.367188 240.664062 159.746094 239.835938 161.085938 238.941406 C 162.421875 238.046875 163.714844 237.089844 164.957031 236.066406 C 166.203125 235.046875 167.394531 233.96875 168.53125 232.828125 C 169.671875 231.691406 170.75 230.5 171.769531 229.253906 C 172.792969 228.011719 173.75 226.71875 174.644531 225.382812 C 175.539062 224.042969 176.363281 222.664062 177.125 221.246094 C 177.882812 219.824219 178.570312 218.371094 179.1875 216.886719 C 179.800781 215.398438 180.34375 213.882812 180.8125 212.34375 C 181.277344 210.804688 181.667969 209.246094 181.984375 207.664062 C 182.296875 206.085938 182.535156 204.496094 182.691406 202.894531 C 182.851562 201.292969 182.929688 199.6875 182.929688 198.078125 L 182.925781 27.132812 L 178.570312 22.78125 L 178.570312 198.082031 C 178.578125 201.023438 178.296875 203.9375 177.726562 206.824219 C 177.15625 209.710938 176.308594 212.515625 175.183594 215.234375 C 174.058594 217.953125 172.675781 220.53125 171.039062 222.976562 C 169.398438 225.421875 167.539062 227.679688 165.449219 229.757812 Z M 196.265625 260.570312 C 194.222656 262.621094 192.085938 264.570312 189.851562 266.410156 C 187.617188 268.25 185.296875 269.976562 182.890625 271.589844 C 180.484375 273.199219 178.007812 274.6875 175.453125 276.054688 C 172.902344 277.421875 170.289062 278.660156 167.613281 279.765625 C 164.941406 280.875 162.214844 281.847656 159.445312 282.6875 C 156.675781 283.523438 153.867188 284.222656 151.027344 284.785156 C 148.1875 285.34375 145.328125 285.765625 142.445312 286.042969 C 139.5625 286.320312 136.675781 286.457031 133.78125 286.449219 L 133.777344 290.796875 C 135.292969 290.796875 136.808594 290.761719 138.328125 290.6875 C 139.84375 290.613281 141.355469 290.5 142.863281 290.351562 C 144.375 290.203125 145.878906 290.019531 147.382812 289.796875 C 148.882812 289.574219 150.378906 289.3125 151.867188 289.015625 C 153.355469 288.722656 154.835938 288.390625 156.304688 288.019531 C 157.777344 287.652344 159.242188 287.246094 160.691406 286.808594 C 162.144531 286.367188 163.585938 285.890625 165.015625 285.378906 C 166.441406 284.867188 167.859375 284.320312 169.261719 283.742188 C 170.660156 283.160156 172.046875 282.546875 173.421875 281.898438 C 174.792969 281.25 176.148438 280.566406 177.484375 279.851562 C 178.824219 279.136719 180.144531 278.386719 181.445312 277.609375 C 182.746094 276.828125 184.027344 276.015625 185.289062 275.171875 C 186.550781 274.332031 187.792969 273.457031 189.011719 272.554688 C 190.230469 271.648438 191.425781 270.714844 192.597656 269.753906 C 193.773438 268.789062 194.921875 267.800781 196.046875 266.78125 C 197.167969 265.761719 198.269531 264.714844 199.339844 263.644531 C 200.414062 262.570312 201.460938 261.472656 202.480469 260.347656 C 203.5 259.222656 204.488281 258.074219 205.453125 256.902344 C 206.414062 255.726562 207.347656 254.53125 208.253906 253.3125 C 209.15625 252.09375 210.03125 250.851562 210.871094 249.589844 C 211.714844 248.328125 212.527344 247.046875 213.308594 245.746094 C 214.085938 244.445312 214.835938 243.125 215.550781 241.785156 C 216.265625 240.449219 216.949219 239.09375 217.597656 237.722656 C 218.246094 236.351562 218.859375 234.964844 219.441406 233.5625 C 220.019531 232.160156 220.566406 230.742188 221.078125 229.316406 C 221.589844 227.886719 222.066406 226.445312 222.503906 224.992188 C 222.945312 223.542969 223.351562 222.078125 223.71875 220.609375 C 224.085938 219.136719 224.421875 217.65625 224.714844 216.167969 C 225.011719 214.679688 225.269531 213.183594 225.492188 211.683594 C 225.714844 210.183594 225.902344 208.675781 226.050781 207.167969 C 226.199219 205.65625 226.3125 204.144531 226.386719 202.628906 C 226.460938 201.113281 226.496094 199.59375 226.496094 198.078125 L 226.496094 70.707031 L 222.144531 66.355469 L 222.144531 198.082031 C 222.152344 200.976562 222.019531 203.867188 221.742188 206.746094 C 221.464844 209.628906 221.042969 212.492188 220.484375 215.332031 C 219.921875 218.171875 219.222656 220.976562 218.382812 223.75 C 217.542969 226.519531 216.570312 229.242188 215.464844 231.917969 C 214.355469 234.59375 213.117188 237.207031 211.75 239.757812 C 210.386719 242.3125 208.894531 244.789062 207.285156 247.195312 C 205.671875 249.601562 203.945312 251.921875 202.105469 254.15625 C 200.265625 256.390625 198.316406 258.527344 196.265625 260.570312 Z M 188.546875 252.851562 C 186.757812 254.652344 184.886719 256.359375 182.929688 257.972656 C 180.96875 259.589844 178.9375 261.101562 176.832031 262.515625 C 174.722656 263.929688 172.550781 265.234375 170.316406 266.433594 C 168.078125 267.632812 165.789062 268.71875 163.445312 269.691406 C 161.101562 270.664062 158.714844 271.519531 156.289062 272.257812 C 153.859375 272.992188 151.402344 273.605469 148.914062 274.101562 C 146.425781 274.59375 143.917969 274.964844 141.390625 275.210938 C 138.867188 275.453125 136.335938 275.574219 133.796875 275.570312 L 133.792969 279.921875 C 135.132812 279.921875 136.46875 279.886719 137.808594 279.820312 C 139.144531 279.757812 140.480469 279.65625 141.8125 279.527344 C 143.144531 279.394531 144.476562 279.230469 145.800781 279.035156 C 147.125 278.839844 148.445312 278.609375 149.757812 278.347656 C 151.070312 278.089844 152.375 277.796875 153.675781 277.46875 C 154.976562 277.144531 156.265625 276.789062 157.546875 276.398438 C 158.828125 276.011719 160.097656 275.589844 161.359375 275.140625 C 162.621094 274.6875 163.871094 274.207031 165.109375 273.695312 C 166.34375 273.179688 167.570312 272.640625 168.78125 272.066406 C 169.992188 271.492188 171.1875 270.890625 172.367188 270.261719 C 173.546875 269.628906 174.714844 268.96875 175.863281 268.28125 C 177.011719 267.59375 178.140625 266.875 179.253906 266.132812 C 180.367188 265.390625 181.464844 264.617188 182.539062 263.820312 C 183.613281 263.023438 184.671875 262.199219 185.707031 261.347656 C 186.742188 260.5 187.753906 259.625 188.746094 258.726562 C 189.738281 257.828125 190.707031 256.902344 191.65625 255.957031 C 192.601562 255.007812 193.527344 254.039062 194.425781 253.046875 C 195.324219 252.054688 196.199219 251.042969 197.046875 250.007812 C 197.898438 248.972656 198.722656 247.914062 199.519531 246.839844 C 200.316406 245.765625 201.085938 244.667969 201.832031 243.554688 C 202.574219 242.441406 203.292969 241.3125 203.980469 240.164062 C 204.667969 239.015625 205.328125 237.847656 205.960938 236.667969 C 206.589844 235.488281 207.191406 234.292969 207.765625 233.082031 C 208.339844 231.871094 208.878906 230.644531 209.394531 229.410156 C 209.90625 228.171875 210.386719 226.921875 210.839844 225.660156 C 211.289062 224.402344 211.710938 223.128906 212.097656 221.847656 C 212.484375 220.566406 212.84375 219.277344 213.167969 217.976562 C 213.492188 216.679688 213.785156 215.371094 214.046875 214.058594 C 214.308594 212.746094 214.539062 211.425781 214.734375 210.101562 C 214.929688 208.777344 215.09375 207.449219 215.226562 206.113281 C 215.355469 204.78125 215.457031 203.445312 215.519531 202.109375 C 215.585938 200.773438 215.617188 199.433594 215.617188 198.09375 L 215.617188 59.828125 L 211.253906 55.460938 L 211.269531 198.097656 C 211.273438 200.636719 211.15625 203.167969 210.910156 205.695312 C 210.664062 208.21875 210.296875 210.726562 209.804688 213.21875 C 209.3125 215.707031 208.695312 218.167969 207.960938 220.59375 C 207.222656 223.023438 206.371094 225.410156 205.398438 227.753906 C 204.425781 230.097656 203.339844 232.390625 202.140625 234.628906 C 200.941406 236.863281 199.636719 239.035156 198.222656 241.144531 C 196.808594 243.253906 195.296875 245.285156 193.679688 247.242188 C 192.066406 249.203125 190.359375 251.074219 188.558594 252.863281 Z M 180.828125 245.132812 C 177.742188 248.234375 174.382812 251 170.746094 253.433594 C 167.113281 255.867188 163.273438 257.921875 159.230469 259.589844 C 155.191406 261.261719 151.023438 262.523438 146.730469 263.367188 C 142.4375 264.210938 138.105469 264.625 133.730469 264.609375 L 133.777344 269.011719 C 134.9375 269.011719 136.097656 268.980469 137.257812 268.925781 C 138.417969 268.867188 139.574219 268.78125 140.730469 268.667969 C 141.882812 268.554688 143.035156 268.414062 144.183594 268.242188 C 145.332031 268.074219 146.476562 267.875 147.613281 267.648438 C 148.753906 267.421875 149.886719 267.167969 151.011719 266.886719 C 152.136719 266.605469 153.257812 266.292969 154.367188 265.957031 C 155.480469 265.621094 156.582031 265.257812 157.671875 264.867188 C 158.765625 264.472656 159.851562 264.054688 160.921875 263.613281 C 161.996094 263.167969 163.054688 262.699219 164.105469 262.203125 C 165.15625 261.707031 166.191406 261.183594 167.214844 260.636719 C 168.238281 260.089844 169.25 259.515625 170.246094 258.921875 C 171.242188 258.324219 172.222656 257.703125 173.1875 257.058594 C 174.152344 256.414062 175.101562 255.746094 176.03125 255.054688 C 176.964844 254.363281 177.878906 253.648438 178.777344 252.910156 C 179.675781 252.175781 180.554688 251.417969 181.414062 250.636719 C 182.273438 249.859375 183.113281 249.058594 183.933594 248.238281 C 184.757812 247.414062 185.554688 246.574219 186.335938 245.714844 C 187.117188 244.855469 187.875 243.976562 188.609375 243.078125 C 189.347656 242.179688 190.058594 241.265625 190.753906 240.332031 C 191.445312 239.402344 192.113281 238.453125 192.757812 237.488281 C 193.402344 236.523438 194.023438 235.542969 194.621094 234.546875 C 195.214844 233.550781 195.789062 232.539062 196.335938 231.515625 C 196.882812 230.492188 197.402344 229.457031 197.902344 228.40625 C 198.398438 227.355469 198.867188 226.296875 199.3125 225.222656 C 199.753906 224.152344 200.171875 223.066406 200.5625 221.976562 C 200.957031 220.882812 201.320312 219.78125 201.65625 218.667969 C 201.992188 217.558594 202.300781 216.441406 202.585938 215.3125 C 202.867188 214.1875 203.121094 213.054688 203.347656 211.917969 C 203.574219 210.777344 203.773438 209.632812 203.941406 208.484375 C 204.113281 207.335938 204.253906 206.1875 204.367188 205.03125 C 204.480469 203.875 204.566406 202.71875 204.625 201.558594 C 204.679688 200.398438 204.707031 199.238281 204.707031 198.078125 L 204.710938 48.921875 L 200.359375 44.566406 L 200.359375 198.105469 C 200.367188 202.476562 199.949219 206.808594 199.101562 211.097656 C 198.253906 215.382812 196.992188 219.546875 195.320312 223.585938 C 193.644531 227.625 191.589844 231.460938 189.15625 235.089844 C 186.722656 238.722656 183.957031 242.078125 180.859375 245.164062 Z M 133.78125 253.765625 L 133.78125 258.121094 C 135.746094 258.117188 137.707031 258.019531 139.660156 257.824219 C 141.617188 257.628906 143.558594 257.339844 145.484375 256.953125 C 147.410156 256.566406 149.316406 256.089844 151.195312 255.515625 C 153.074219 254.945312 154.921875 254.28125 156.738281 253.527344 C 158.550781 252.773438 160.324219 251.933594 162.058594 251.007812 C 163.789062 250.078125 165.472656 249.070312 167.105469 247.976562 C 168.738281 246.886719 170.316406 245.714844 171.835938 244.46875 C 173.355469 243.222656 174.808594 241.902344 176.199219 240.515625 C 177.585938 239.125 178.90625 237.671875 180.152344 236.152344 C 181.398438 234.632812 182.566406 233.058594 183.660156 231.425781 C 184.753906 229.789062 185.761719 228.109375 186.691406 226.375 C 187.617188 224.644531 188.457031 222.867188 189.210938 221.054688 C 189.964844 219.238281 190.625 217.390625 191.199219 215.511719 C 191.769531 213.632812 192.25 211.730469 192.636719 209.800781 C 193.019531 207.875 193.3125 205.933594 193.503906 203.976562 C 193.699219 202.023438 193.800781 200.0625 193.800781 198.097656 L 193.800781 38.0625 L 189.449219 33.707031 L 189.464844 198.082031 C 189.464844 199.90625 189.371094 201.722656 189.191406 203.539062 C 189.011719 205.351562 188.746094 207.15625 188.390625 208.941406 C 188.03125 210.730469 187.589844 212.496094 187.058594 214.242188 C 186.527344 215.988281 185.914062 217.699219 185.214844 219.386719 C 184.519531 221.070312 183.738281 222.714844 182.878906 224.324219 C 182.019531 225.933594 181.082031 227.492188 180.070312 229.007812 C 179.054688 230.527344 177.972656 231.988281 176.8125 233.398438 C 175.65625 234.808594 174.433594 236.15625 173.144531 237.445312 C 171.855469 238.734375 170.507812 239.957031 169.097656 241.113281 C 167.6875 242.273438 166.222656 243.355469 164.707031 244.371094 C 163.191406 245.382812 161.628906 246.320312 160.023438 247.179688 C 158.414062 248.039062 156.769531 248.820312 155.085938 249.515625 C 153.398438 250.214844 151.683594 250.828125 149.941406 251.359375 C 148.195312 251.890625 146.429688 252.332031 144.640625 252.691406 C 142.851562 253.046875 141.050781 253.316406 139.238281 253.496094 C 137.421875 253.675781 135.605469 253.765625 133.78125 253.765625 Z M 133.78125 253.765625 " clip-rule="nonzero"/></clipPath><linearGradient x1="-50.471703" gradientTransform="matrix(-0.406186, -0.406186, 0.406186, -0.406186, 152.980994, 310.002234)" y1="-13.517391" x2="370.332522" gradientUnits="userSpaceOnUse" y2="498.601102" id="885fc99975"><stop stop-opacity="1" stop-color="rgb(30.589294%, 44.309998%, 100%)" offset="0"/><stop stop-opacity="1" stop-color="rgb(30.589294%, 44.309998%, 100%)" offset="0.25"/><stop stop-opacity="1" stop-color="rgb(30.589294%, 44.309998%, 100%)" offset="0.3125"/><stop stop-opacity="1" stop-color="rgb(30.421448%, 44.483948%, 100%)" offset="0.328125"/><stop stop-opacity="1" stop-color="rgb(29.959106%, 44.963074%, 100%)" offset="0.332031"/><stop stop-opacity="1" stop-color="rgb(29.664612%, 45.269775%, 100%)" offset="0.335938"/><stop stop-opacity="1" stop-color="rgb(29.370117%, 45.574951%, 100%)" offset="0.339844"/><stop stop-opacity="1" stop-color="rgb(29.075623%, 45.880127%, 100%)" offset="0.34375"/><stop stop-opacity="1" stop-color="rgb(28.781128%, 46.185303%, 100%)" offset="0.347656"/><stop stop-opacity="1" stop-color="rgb(28.488159%, 46.492004%, 100%)" offset="0.351562"/><stop stop-opacity="1" stop-color="rgb(28.193665%, 46.79718%, 100%)" offset="0.355469"/><stop stop-opacity="1" stop-color="rgb(27.89917%, 47.103882%, 100%)" offset="0.359375"/><stop stop-opacity="1" stop-color="rgb(27.604675%, 47.409058%, 100%)" offset="0.363281"/><stop stop-opacity="1" stop-color="rgb(27.310181%, 47.714233%, 100%)" offset="0.367188"/><stop stop-opacity="1" stop-color="rgb(27.015686%, 48.019409%, 100%)" offset="0.371094"/><stop stop-opacity="1" stop-color="rgb(26.721191%, 48.326111%, 100%)" offset="0.375"/><stop stop-opacity="1" stop-color="rgb(26.426697%, 48.631287%, 100%)" offset="0.378906"/><stop stop-opacity="1" stop-color="rgb(26.132202%, 48.937988%, 100%)" offset="0.382812"/><stop stop-opacity="1" stop-color="rgb(25.837708%, 49.243164%, 100%)" offset="0.386719"/><stop stop-opacity="1" stop-color="rgb(25.544739%, 49.54834%, 100%)" offset="0.390625"/><stop stop-opacity="1" stop-color="rgb(25.250244%, 49.853516%, 100%)" offset="0.394531"/><stop stop-opacity="1" stop-color="rgb(24.95575%, 50.160217%, 100%)" offset="0.398438"/><stop stop-opacity="1" stop-color="rgb(24.661255%, 50.465393%, 100%)" offset="0.402344"/><stop stop-opacity="1" stop-color="rgb(24.36676%, 50.772095%, 100%)" offset="0.40625"/><stop stop-opacity="1" stop-color="rgb(24.072266%, 51.077271%, 100%)" offset="0.410156"/><stop stop-opacity="1" stop-color="rgb(23.777771%, 51.383972%, 100%)" offset="0.414062"/><stop stop-opacity="1" stop-color="rgb(23.483276%, 51.689148%, 100%)" offset="0.417969"/><stop stop-opacity="1" stop-color="rgb(23.188782%, 51.994324%, 100%)" offset="0.421875"/><stop stop-opacity="1" stop-color="rgb(22.894287%, 52.2995%, 100%)" offset="0.425781"/><stop stop-opacity="1" stop-color="rgb(22.601318%, 52.606201%, 100%)" offset="0.429688"/><stop stop-opacity="1" stop-color="rgb(22.306824%, 52.911377%, 100%)" offset="0.433594"/><stop stop-opacity="1" stop-color="rgb(22.012329%, 53.218079%, 100%)" offset="0.4375"/><stop stop-opacity="1" stop-color="rgb(21.717834%, 53.523254%, 100%)" offset="0.441406"/><stop stop-opacity="1" stop-color="rgb(21.42334%, 53.82843%, 100%)" offset="0.445312"/><stop stop-opacity="1" stop-color="rgb(21.128845%, 54.133606%, 100%)" offset="0.449219"/><stop stop-opacity="1" stop-color="rgb(20.834351%, 54.440308%, 100%)" offset="0.453125"/><stop stop-opacity="1" stop-color="rgb(20.539856%, 54.745483%, 100%)" offset="0.457031"/><stop stop-opacity="1" stop-color="rgb(20.245361%, 55.052185%, 100%)" offset="0.460938"/><stop stop-opacity="1" stop-color="rgb(19.950867%, 55.357361%, 100%)" offset="0.464844"/><stop stop-opacity="1" stop-color="rgb(19.657898%, 55.662537%, 100%)" offset="0.46875"/><stop stop-opacity="1" stop-color="rgb(19.363403%, 55.967712%, 100%)" offset="0.472656"/><stop stop-opacity="1" stop-color="rgb(19.068909%, 56.274414%, 100%)" offset="0.476562"/><stop stop-opacity="1" stop-color="rgb(18.774414%, 56.57959%, 100%)" offset="0.480469"/><stop stop-opacity="1" stop-color="rgb(18.479919%, 56.886292%, 100%)" offset="0.484375"/><stop stop-opacity="1" stop-color="rgb(18.185425%, 57.191467%, 100%)" offset="0.488281"/><stop stop-opacity="1" stop-color="rgb(17.89093%, 57.496643%, 100%)" offset="0.492188"/><stop stop-opacity="1" stop-color="rgb(17.596436%, 57.801819%, 100%)" offset="0.496094"/><stop stop-opacity="1" stop-color="rgb(17.301941%, 58.108521%, 100%)" offset="0.5"/><stop stop-opacity="1" stop-color="rgb(17.007446%, 58.413696%, 100%)" offset="0.503906"/><stop stop-opacity="1" stop-color="rgb(16.712952%, 58.720398%, 100%)" offset="0.507812"/><stop stop-opacity="1" stop-color="rgb(16.418457%, 59.025574%, 100%)" offset="0.511719"/><stop stop-opacity="1" stop-color="rgb(16.125488%, 59.33075%, 100%)" offset="0.515625"/><stop stop-opacity="1" stop-color="rgb(15.830994%, 59.635925%, 100%)" offset="0.519531"/><stop stop-opacity="1" stop-color="rgb(15.536499%, 59.942627%, 100%)" offset="0.523438"/><stop stop-opacity="1" stop-color="rgb(15.242004%, 60.247803%, 100%)" offset="0.527344"/><stop stop-opacity="1" stop-color="rgb(14.94751%, 60.554504%, 100%)" offset="0.53125"/><stop stop-opacity="1" stop-color="rgb(14.653015%, 60.85968%, 100%)" offset="0.535156"/><stop stop-opacity="1" stop-color="rgb(14.358521%, 61.164856%, 100%)" offset="0.539062"/><stop stop-opacity="1" stop-color="rgb(14.064026%, 61.470032%, 100%)" offset="0.542969"/><stop stop-opacity="1" stop-color="rgb(13.769531%, 61.776733%, 100%)" offset="0.546875"/><stop stop-opacity="1" stop-color="rgb(13.475037%, 62.081909%, 100%)" offset="0.550781"/><stop stop-opacity="1" stop-color="rgb(13.182068%, 62.388611%, 100%)" offset="0.554688"/><stop stop-opacity="1" stop-color="rgb(12.887573%, 62.693787%, 100%)" offset="0.558594"/><stop stop-opacity="1" stop-color="rgb(12.593079%, 63.000488%, 100%)" offset="0.5625"/><stop stop-opacity="1" stop-color="rgb(12.298584%, 63.305664%, 100%)" offset="0.566406"/><stop stop-opacity="1" stop-color="rgb(12.004089%, 63.61084%, 100%)" offset="0.570312"/><stop stop-opacity="1" stop-color="rgb(11.709595%, 63.916016%, 100%)" offset="0.574219"/><stop stop-opacity="1" stop-color="rgb(11.4151%, 64.222717%, 100%)" offset="0.578125"/><stop stop-opacity="1" stop-color="rgb(11.120605%, 64.527893%, 100%)" offset="0.582031"/><stop stop-opacity="1" stop-color="rgb(10.826111%, 64.834595%, 100%)" offset="0.585938"/><stop stop-opacity="1" stop-color="rgb(10.531616%, 65.139771%, 100%)" offset="0.589844"/><stop stop-opacity="1" stop-color="rgb(10.238647%, 65.444946%, 100%)" offset="0.59375"/><stop stop-opacity="1" stop-color="rgb(9.944153%, 65.750122%, 100%)" offset="0.597656"/><stop stop-opacity="1" stop-color="rgb(9.649658%, 66.056824%, 100%)" offset="0.601562"/><stop stop-opacity="1" stop-color="rgb(9.355164%, 66.362%, 100%)" offset="0.605469"/><stop stop-opacity="1" stop-color="rgb(9.060669%, 66.668701%, 100%)" offset="0.609375"/><stop stop-opacity="1" stop-color="rgb(8.766174%, 66.973877%, 100%)" offset="0.613281"/><stop stop-opacity="1" stop-color="rgb(8.47168%, 67.279053%, 100%)" offset="0.617188"/><stop stop-opacity="1" stop-color="rgb(8.177185%, 67.584229%, 100%)" offset="0.621094"/><stop stop-opacity="1" stop-color="rgb(7.88269%, 67.89093%, 100%)" offset="0.625"/><stop stop-opacity="1" stop-color="rgb(7.588196%, 68.196106%, 100%)" offset="0.628906"/><stop stop-opacity="1" stop-color="rgb(7.295227%, 68.502808%, 100%)" offset="0.632812"/><stop stop-opacity="1" stop-color="rgb(7.000732%, 68.807983%, 100%)" offset="0.636719"/><stop stop-opacity="1" stop-color="rgb(6.706238%, 69.113159%, 100%)" offset="0.640625"/><stop stop-opacity="1" stop-color="rgb(6.411743%, 69.418335%, 100%)" offset="0.644531"/><stop stop-opacity="1" stop-color="rgb(6.117249%, 69.725037%, 100%)" offset="0.648438"/><stop stop-opacity="1" stop-color="rgb(5.822754%, 70.030212%, 100%)" offset="0.652344"/><stop stop-opacity="1" stop-color="rgb(5.528259%, 70.336914%, 100%)" offset="0.65625"/><stop stop-opacity="1" stop-color="rgb(5.233765%, 70.64209%, 100%)" offset="0.660156"/><stop stop-opacity="1" stop-color="rgb(4.93927%, 70.947266%, 100%)" offset="0.664062"/><stop stop-opacity="1" stop-color="rgb(4.644775%, 71.252441%, 100%)" offset="0.667969"/><stop stop-opacity="1" stop-color="rgb(4.351807%, 71.559143%, 100%)" offset="0.671875"/><stop stop-opacity="1" stop-color="rgb(4.057312%, 71.864319%, 100%)" offset="0.675781"/><stop stop-opacity="1" stop-color="rgb(3.762817%, 72.171021%, 100%)" offset="0.679688"/><stop stop-opacity="1" stop-color="rgb(3.468323%, 72.476196%, 100%)" offset="0.683594"/><stop stop-opacity="1" stop-color="rgb(3.173828%, 72.782898%, 100%)" offset="0.6875"/><stop stop-opacity="1" stop-color="rgb(2.879333%, 73.088074%, 100%)" offset="0.691406"/><stop stop-opacity="1" stop-color="rgb(2.584839%, 73.39325%, 100%)" offset="0.695312"/><stop stop-opacity="1" stop-color="rgb(2.290344%, 73.698425%, 100%)" offset="0.699219"/><stop stop-opacity="1" stop-color="rgb(1.99585%, 74.005127%, 100%)" offset="0.703125"/><stop stop-opacity="1" stop-color="rgb(1.701355%, 74.310303%, 100%)" offset="0.707031"/><stop stop-opacity="1" stop-color="rgb(1.408386%, 74.617004%, 100%)" offset="0.710938"/><stop stop-opacity="1" stop-color="rgb(1.113892%, 74.92218%, 100%)" offset="0.714844"/><stop stop-opacity="1" stop-color="rgb(0.819397%, 75.227356%, 100%)" offset="0.71875"/><stop stop-opacity="1" stop-color="rgb(0.524902%, 75.532532%, 100%)" offset="0.722656"/><stop stop-opacity="1" stop-color="rgb(0.230408%, 75.839233%, 100%)" offset="0.726562"/><stop stop-opacity="1" stop-color="rgb(0.114441%, 75.958252%, 100%)" offset="0.734375"/><stop stop-opacity="1" stop-color="rgb(0%, 76.078796%, 100%)" offset="0.75"/><stop stop-opacity="1" stop-color="rgb(0%, 76.078796%, 100%)" offset="1"/></linearGradient><clipPath id="e8b03d9de4"><rect x="0" width="327" y="0" height="311"/></clipPath></defs><g transform="matrix(1, 0, 0, 1, 24, 32)"><g clip-path="url(#e8b03d9de4)"><g clip-path="url(#500e310189)"><g clip-path="url(#831a159a99)"><g clip-path="url(#6b9d1ea5c5)"><g clip-path="url(#2f3c634c0e)"><path fill="url(#fe11f6faf3)" d="M 41.425781 105.054688 L 41.425781 290.796875 L 158.949219 290.796875 L 158.949219 105.054688 Z M 41.425781 105.054688 " fill-rule="nonzero"/></g></g></g></g><g clip-path="url(#7ad416e631)"><g clip-path="url(#88466f1db9)"><g clip-path="url(#8b75a0a34e)"><g clip-path="url(#f3e2555bef)"><path fill="url(#df8b3ca8e6)" d="M 221.789062 104.867188 L 221.789062 174.902344 L 320.539062 174.902344 L 320.539062 104.867188 Z M 221.789062 104.867188 " fill-rule="nonzero"/></g></g></g></g><g clip-path="url(#daf6849fd5)"><g clip-path="url(#31ba76f025)"><g clip-path="url(#82609a7077)"><g clip-path="url(#4fa578f662)"><path fill="url(#885fc99975)" d="M 180.113281 337.179688 L 371.398438 145.894531 L 180.113281 -45.390625 L -11.171875 145.894531 Z M 180.113281 337.179688 " fill-rule="nonzero"/></g></g></g></g></g></g></svg>